# This file uses centimeters as units for non-parametric coordinates.

mtllib stationary_003.mtl
adobe_mdllib stationary_003.mdl
g default
v -0.003327 0.199830 -5.507128
v -0.003327 0.438630 -0.735057
v -0.003327 0.250670 -5.349539
v -0.003327 1.591267 -11.235777
v 7.877172 0.250101 -5.349834
v 7.982934 0.119472 -4.660897
v 7.751470 0.293123 -5.573979
v 3.874145 0.967971 -8.390738
v -0.003327 1.642817 -11.207541
v 7.905602 0.192676 -5.349879
v 7.905602 0.221673 -5.349834
v 8.011353 0.091043 -4.661010
v 8.011306 0.066074 -4.661104
v 7.779898 0.234892 -5.573979
v 3.888361 0.913057 -8.404900
v 3.888361 0.942812 -8.404718
v 7.779898 0.264647 -5.573979
v 7.990557 0.019830 -4.362556
v 3.874145 0.881359 -8.391222
v 8.018997 0.049301 -4.362556
v 8.018997 0.049301 -4.569750
v 8.018997 0.073797 -4.569750
v 8.018997 0.073749 -4.362556
v 7.854444 0.265737 -5.432119
v 7.840970 0.221957 -5.506895
v 7.840970 0.251617 -5.506895
v 7.812551 0.280093 -5.506895
v 7.882862 0.207885 -5.432119
v 7.882862 0.237308 -5.432119
v 7.995532 0.105731 -4.569750
v 7.988807 0.112222 -4.622672
v 8.017178 0.059061 -4.622804
v 8.017225 0.083794 -4.622760
v 8.018997 0.072944 6.608568
v 7.995532 0.105684 -4.362461
v 7.976668 0.187321 6.521434
v 6.760550 0.287437 -4.267512
v 6.760550 0.241478 -4.039547
v 7.935746 0.131412 -4.346297
v 7.935746 0.135913 -4.545542
v 5.381429 0.327617 -3.221509
v 5.381140 0.337472 -3.448945
v 1.670074 0.348511 -0.633282
v 1.780141 0.332071 -0.426654
v 5.381476 0.213807 3.524112
v 6.760594 0.168748 5.021115
v 5.519349 0.342021 3.265459
v -0.003327 0.332876 3.265125
v 7.536159 0.251475 5.459151
v 1.780616 0.438630 -0.734918
v 1.945737 0.431523 -0.555444
v 8.018997 0.049301 6.608568
v 7.990557 0.019830 6.588621
v 7.935793 0.124779 6.501297
v 7.965641 0.120988 -4.354404
v 7.965641 0.123262 -4.557658
v 7.965641 0.114829 6.544983
v 7.935746 0.101562 -4.560655
v 7.935746 0.052759 -4.493753
v 6.760550 0.206748 -4.255081
v 6.760550 0.250717 -4.291324
v 5.381095 0.298620 -3.475910
v 5.381095 0.268533 -3.446434
v 1.633969 0.245079 -0.529477
v 1.633969 0.293645 -0.587752
v 7.972042 0.097013 -4.566244
v 7.935746 0.118761 -4.560466
v 6.760550 0.274361 -4.297316
v 5.381095 0.323542 -3.479687
v 1.644537 0.318899 -0.604287
v -0.003327 0.327285 -0.614949
v 7.995532 0.104879 6.588621
v -0.003327 0.019830 -4.569794
v -0.003327 1.556205 -11.208460
v -0.003327 0.219730 -5.574231
v -0.003327 0.025563 -4.622137
v -0.003327 0.101372 6.588621
v -0.003327 0.187369 6.521434
v 7.877219 0.164247 -5.349929
v 7.982887 0.037645 -4.661149
v 7.751470 0.206511 -5.573979
v 7.990557 0.019830 -4.569750
v 7.812551 0.193576 -5.506895
v 7.854444 0.179456 -5.432163
v 7.988759 0.030633 -4.622898
v -0.003327 0.164105 -5.349677
v -0.003327 0.102225 -4.569750
v -0.003327 0.112128 -4.621772
v -0.003327 0.049301 6.608568
v -0.003327 1.620977 -11.235500
v -7.883826 0.250101 -5.349834
v -7.989589 0.119472 -4.660897
v -7.758124 0.293123 -5.573979
v -3.880800 0.967971 -8.390738
v -7.912258 0.192676 -5.349879
v -7.912258 0.221673 -5.349834
v -8.018007 0.091043 -4.661010
v -8.017961 0.066074 -4.661104
v -7.786552 0.234892 -5.573979
v -3.895015 0.913057 -8.404900
v -3.895015 0.942812 -8.404718
v -7.786552 0.264647 -5.573979
v -7.997211 0.019830 -4.362556
v -0.003327 0.019830 -4.362833
v -3.880800 0.881359 -8.391222
v -0.003327 0.032859 -4.660394
v -8.025652 0.049301 -4.362556
v -8.025652 0.049301 -4.569750
v -8.025652 0.073797 -4.569750
v -8.025652 0.073749 -4.362556
v -7.861098 0.265737 -5.432119
v -7.847625 0.221957 -5.506895
v -7.847625 0.251617 -5.506895
v -7.819206 0.280093 -5.506895
v -7.889516 0.207885 -5.432119
v -7.889516 0.237308 -5.432119
v -0.003327 0.181304 -5.432415
v -8.002187 0.105731 -4.569750
v -7.995461 0.112222 -4.622672
v -8.023832 0.059061 -4.622804
v -8.023880 0.083794 -4.622760
v -8.025652 0.072944 6.608568
v -8.002187 0.105684 -4.362461
v -7.983323 0.187321 6.521434
v -6.767204 0.287437 -4.267512
v -6.767204 0.241478 -4.039547
v -7.942400 0.131412 -4.346297
v -7.942400 0.135913 -4.545542
v -5.388083 0.327617 -3.221509
v -5.387794 0.337472 -3.448945
v -1.676729 0.348511 -0.633282
v -1.786795 0.332071 -0.426654
v -5.388131 0.213807 3.524112
v -6.767248 0.168748 5.021115
v -5.526003 0.342021 3.265459
v -7.542813 0.251475 5.459151
v -1.787271 0.438630 -0.734918
v -0.003327 0.427258 -0.555444
v -1.952392 0.431523 -0.555444
v -8.025652 0.049301 6.608568
v -0.003327 0.072944 6.608568
v -7.997211 0.019830 6.588621
v -0.003327 0.019830 6.588621
v -7.942448 0.124779 6.501297
v -7.972295 0.120988 -4.354404
v -7.972295 0.123262 -4.557658
v -7.972295 0.114829 6.544983
v -7.942400 0.101562 -4.560655
v -7.942400 0.052759 -4.493753
v -6.767204 0.206748 -4.255081
v -6.767204 0.250717 -4.291324
v -5.387750 0.298620 -3.475910
v -5.387750 0.268533 -3.446434
v -1.640624 0.245079 -0.529477
v -1.640624 0.293645 -0.587752
v -0.003327 0.300894 -0.581832
v -7.978696 0.097013 -4.566244
v -7.942400 0.118761 -4.560466
v -6.767204 0.274361 -4.297316
v -5.387750 0.323542 -3.479687
v -1.651192 0.318899 -0.604287
v -8.002187 0.104879 6.588621
v -0.003327 0.119425 -4.660048
v -0.003323 0.306295 -5.574231
v -0.003327 0.267917 -5.432371
v -0.003327 0.286443 -5.507128
v -0.003327 0.251523 5.459151
v -0.003327 0.354245 -0.648778
v -0.003327 0.246169 -0.505502
v -0.003327 0.102225 6.561282
v -7.883873 0.164247 -5.349929
v -7.989542 0.037645 -4.661149
v -7.758124 0.206511 -5.573979
v -7.997211 0.019830 -4.569750
v -7.819206 0.193576 -5.506895
v -7.861098 0.179456 -5.432163
v -7.995414 0.030633 -4.622898
v -5.336867 0.585132 8.047670
v 6.165916 0.554050 2.871674
v -9.081235 0.585132 -0.253427
v 2.470672 0.554049 -5.401649
v -9.081235 0.607590 -0.253427
v -5.336867 0.607592 8.047670
v 6.174539 0.607590 2.867793
v 2.466831 0.607590 -5.410336
v -5.349383 0.585132 8.042933
v -5.340748 0.554050 8.039047
v 6.174539 0.585132 2.867793
v 6.169749 0.585132 2.880344
v -9.076446 0.585132 -0.265943
v -9.072580 0.554050 -0.257260
v 2.466831 0.585131 -5.410336
v 2.479342 0.585131 -5.405545
v -9.072580 0.638625 -0.257260
v -9.076446 0.607590 -0.265943
v -5.340748 0.638626 8.039047
v -5.349383 0.607592 8.042933
v 6.165916 0.638625 2.871674
v 6.169749 0.607590 2.880344
v 2.470672 0.638625 -5.401649
v 2.479342 0.607590 -5.405545
v -5.344304 0.585132 8.048428
v -5.347240 0.561821 8.041937
v -5.337811 0.561821 8.045538
v 6.172409 0.561820 2.868784
v 6.175298 0.585132 2.875278
v 6.168805 0.561820 2.878168
v -9.081997 0.585132 -0.260866
v -9.075501 0.561820 -0.263756
v -9.079070 0.561820 -0.254383
v 2.467781 0.561820 -5.408145
v 2.474269 0.585131 -5.411046
v 2.477160 0.561820 -5.404551
v -9.079070 0.630854 -0.254383
v -9.075501 0.630380 -0.263756
v -9.081997 0.607590 -0.260866
v -5.337811 0.630855 8.045538
v -5.347240 0.629861 8.041937
v -5.344304 0.607592 8.048428
v 6.172409 0.630854 2.868784
v 6.168805 0.631234 2.878168
v 6.175298 0.607590 2.875278
v 2.467781 0.630854 -5.408145
v 2.477160 0.629907 -5.404551
v 2.474269 0.607590 -5.411046
v -5.342693 0.567649 8.047720
v 6.172928 0.561820 2.874380
v -9.081235 0.567648 -0.259265
v 2.473372 0.561820 -5.408724
v -9.081235 0.624648 -0.259265
v -5.342693 0.624269 8.047720
v 6.174586 0.625311 2.873665
v 2.472664 0.624315 -5.410336
v 0.002413 0.246165 -0.505586
v 0.002413 0.300868 -0.581853
v 0.002450 0.327256 -0.614912
v 0.002539 0.354225 -0.648724
v 0.002927 0.438630 -0.735056
v 0.003506 0.427273 -0.555444
v 0.016034 0.332908 3.265126
v 0.023104 0.251523 5.459151
v 0.024649 0.187369 6.521434
v 0.024715 0.101385 6.588621
v 0.024797 0.072944 6.608568
v 0.024797 0.049301 6.608568
v 0.024697 0.019830 6.588621
v 0.024697 0.019830 -4.362832
v 0.024697 0.019830 -4.569793
v 0.024691 0.025581 -4.622139
v 0.024670 0.032876 -4.660396
v 0.024300 0.164105 -5.349678
v 0.024220 0.181298 -5.432414
v 0.024073 0.199808 -5.507127
v 0.023859 0.219684 -5.574231
v 0.010266 1.553839 -11.198584
v 0.010316 1.588889 -11.225853
v 0.010316 1.618600 -11.225576
v 0.010266 1.640451 -11.197665
v 0.023864 0.306249 -5.574231
v 0.024073 0.286421 -5.507127
v 0.024220 0.267909 -5.432371
v 0.024300 0.250668 -5.349540
v 0.024671 0.119425 -4.660050
v 0.024691 0.112128 -4.621775
v 0.024715 0.102237 -4.569750
v 0.024715 0.102234 6.561378
v -0.010473 0.246164 -0.505606
v -0.010473 0.300862 -0.581858
v -0.010519 0.327248 -0.614903
v -0.010630 0.354220 -0.648710
v -0.011113 0.438630 -0.735056
v -0.011833 0.427277 -0.555444
v -0.027429 0.332916 3.265127
v -0.036230 0.251523 5.459151
v -0.038153 0.187369 6.521434
v -0.038235 0.101388 6.588621
v -0.038337 0.072944 6.608568
v -0.038337 0.049301 6.608568
v -0.038213 0.019830 6.588621
v -0.038213 0.019830 -4.362832
v -0.038213 0.019830 -4.569794
v -0.038205 0.025585 -4.622140
v -0.038180 0.032880 -4.660397
v -0.037719 0.164105 -5.349678
v -0.037619 0.181296 -5.432414
v -0.037436 0.199803 -5.507127
v -0.037170 0.219672 -5.574230
v -0.020249 1.553259 -11.196165
v -0.020311 1.588307 -11.223422
v -0.020311 1.618017 -11.223147
v -0.020249 1.639872 -11.195248
v -0.037165 0.306238 -5.574230
v -0.037436 0.286415 -5.507127
v -0.037619 0.267907 -5.432370
v -0.037718 0.250668 -5.349540
v -0.038180 0.119425 -4.660051
v -0.038206 0.112128 -4.621776
v -0.038235 0.102240 -4.569750
v -0.038235 0.102237 6.561401
v 2.474257 0.638625 -5.393622
v -9.068959 0.638625 -0.249210
v -9.075449 0.630853 -0.246333
v -9.077614 0.607590 -0.245377
v -9.077614 0.585132 -0.245377
v -9.075449 0.561820 -0.246333
v -9.068959 0.554050 -0.249210
v 2.474257 0.554049 -5.393622
v 2.480745 0.561820 -5.396523
v 2.482928 0.585131 -5.397517
v 2.482928 0.607590 -5.397517
v 2.480745 0.629908 -5.396523
v 2.462432 0.638625 -5.397977
v 2.466017 0.638625 -5.389950
v 6.157702 0.638625 2.875362
v 6.160591 0.631233 2.881856
v 6.161536 0.607590 2.884032
v 6.161536 0.585132 2.884032
v 6.160591 0.561820 2.881856
v 6.157702 0.554050 2.875362
v 2.466017 0.554049 -5.389950
v 2.462432 0.554049 -5.397977
v 2.459541 0.561820 -5.404473
v 2.458591 0.585131 -5.406663
v 2.458591 0.607590 -5.406663
v 2.459541 0.630853 -5.404473
v -5.333503 0.638626 8.035794
v -9.061691 0.638625 -0.252449
v -9.065312 0.638625 -0.260499
v -9.068233 0.630381 -0.266995
v -9.069178 0.607590 -0.269182
v -9.069178 0.585132 -0.269182
v -9.068233 0.561820 -0.266995
v -9.065312 0.554050 -0.260499
v -9.061691 0.554050 -0.252449
v -5.333503 0.554050 8.035794
v -5.330567 0.561821 8.042284
v -5.329622 0.585132 8.044416
v -5.329622 0.607592 8.044416
v -5.330567 0.630856 8.042284
v -5.344043 0.638626 8.031721
v -5.336798 0.638626 8.028468
v 6.154439 0.638625 2.868057
v 6.162653 0.638625 2.864368
v 6.169146 0.630853 2.861479
v 6.171276 0.607590 2.860487
v 6.171276 0.585132 2.860487
v 6.169146 0.561820 2.861479
v 6.162653 0.554050 2.864368
v 6.154439 0.554050 2.868056
v -5.336798 0.554050 8.028468
v -5.344043 0.554050 8.031721
v -5.350535 0.561821 8.034612
v -5.352678 0.585132 8.035607
v -5.352678 0.607592 8.035607
v -5.350535 0.629862 8.034612
vt 0.468693 0.322393
vt 0.465898 0.341660
vt 0.249662 0.343315
vt 0.249662 0.323941
vt 0.249662 0.509343
vt 0.249662 0.349852
vt 0.462555 0.347686
vt 0.356572 0.428467
vt 0.470476 0.322408
vt 0.467762 0.341741
vt 0.466998 0.341644
vt 0.469792 0.322360
vt 0.357273 0.429008
vt 0.463701 0.347843
vt 0.464417 0.348306
vt 0.357893 0.429551
vt 0.763273 0.322847
vt 0.543512 0.322847
vt 0.543512 0.317156
vt 0.763273 0.317156
vt 0.550118 0.350946
vt 0.763273 0.351048
vt 0.763273 0.510241
vt 0.656670 0.430568
vt 0.763273 0.344645
vt 0.546612 0.344645
vt 0.543715 0.325439
vt 0.763273 0.325388
vt 0.341381 0.525596
vt 0.335602 0.525684
vt 0.335601 0.524985
vt 0.341378 0.524976
vt 0.465225 0.343849
vt 0.249662 0.345694
vt 0.465207 0.345892
vt 0.465920 0.346164
vt 0.548390 0.349066
vt 0.763273 0.349117
vt 0.464139 0.345867
vt 0.249662 0.347869
vt 0.466267 0.343837
vt 0.467002 0.344010
vt 0.547272 0.346983
vt 0.763273 0.346983
vt 0.469093 0.319887
vt 0.468887 0.321343
vt 0.249662 0.322835
vt 0.249662 0.321352
vt 0.469988 0.321320
vt 0.470226 0.319863
vt 0.470939 0.319879
vt 0.470655 0.321334
vt 0.763273 0.324321
vt 0.543563 0.324371
vt 0.464863 0.349292
vt 0.358553 0.430337
vt 0.335601 0.523844
vt 0.341378 0.523841
vt 0.335600 0.526785
vt 0.030273 0.526914
vt 0.029734 0.525683
vt 0.026644 0.534465
vt 0.026597 0.754943
vt 0.023567 0.754943
vt 0.023667 0.534405
vt 0.340843 0.528289
vt 0.334395 0.561480
vt 0.327971 0.561356
vt 0.335425 0.528527
vt 0.227185 0.698179
vt 0.305373 0.599378
vt 0.311420 0.599845
vt 0.231611 0.703933
vt 0.076261 0.556730
vt 0.117712 0.596446
vt 0.053647 0.549352
vt 0.114460 0.604333
vt 0.117823 0.754943
vt 0.056405 0.754943
vt 0.222594 0.701334
vt 0.227565 0.704792
vt 0.227565 0.754943
vt 0.222594 0.754943
vt 0.022604 0.754943
vt 0.021949 0.754943
vt 0.021949 0.533752
vt 0.022613 0.533752
vt 0.020957 0.754943
vt 0.020957 0.534544
vt 0.031876 0.529081
vt 0.341449 0.526580
vt 0.029737 0.524995
vt 0.030293 0.523847
vt 0.543512 0.016097
vt 0.763273 0.016097
vt 0.249662 0.510789
vt 0.249662 0.510243
vt 0.249662 0.511289
vt 0.335359 0.527687
vt 0.341105 0.527456
vt 0.031406 0.527997
vt 0.341841 0.528375
vt 0.344025 0.529187
vt 0.337017 0.562459
vt 0.335756 0.561705
vt 0.312947 0.600081
vt 0.313707 0.600888
vt 0.235736 0.706612
vt 0.233666 0.705667
vt 0.231611 0.754943
vt 0.233766 0.754943
vt 0.235736 0.754943
vt 0.341818 0.527241
vt 0.341396 0.528277
vt 0.335213 0.561494
vt 0.312224 0.599903
vt 0.232983 0.705082
vt 0.232983 0.754943
vt 0.249662 0.013618
vt 0.469492 0.013618
vt 0.471572 0.322586
vt 0.468803 0.342051
vt 0.466651 0.346940
vt 0.467912 0.344574
vt 0.472074 0.320002
vt 0.471748 0.321480
vt 0.033425 0.341660
vt 0.030630 0.322393
vt 0.036769 0.347686
vt 0.142751 0.428467
vt 0.032325 0.341644
vt 0.031561 0.341741
vt 0.028847 0.322408
vt 0.029531 0.322360
vt 0.034906 0.348306
vt 0.035622 0.347843
vt 0.142050 0.429008
vt 0.141431 0.429551
vt 0.983033 0.317156
vt 0.983033 0.322847
vt 0.976428 0.350946
vt 0.869876 0.430568
vt 0.982830 0.325439
vt 0.979934 0.344645
vt 0.335601 0.984901
vt 0.335602 0.984202
vt 0.341380 0.984290
vt 0.341378 0.984910
vt 0.034098 0.343849
vt 0.033404 0.346164
vt 0.034116 0.345892
vt 0.978156 0.349066
vt 0.035184 0.345867
vt 0.032321 0.344010
vt 0.033056 0.343837
vt 0.979273 0.346983
vt 0.030437 0.321343
vt 0.030231 0.319887
vt 0.028384 0.319879
vt 0.029097 0.319863
vt 0.029335 0.321320
vt 0.028668 0.321334
vt 0.982983 0.324371
vt 0.034461 0.349292
vt 0.140770 0.430337
vt 0.341378 0.986045
vt 0.335601 0.986042
vt 0.029734 0.984203
vt 0.030273 0.982972
vt 0.335600 0.983101
vt 0.026644 0.975421
vt 0.023667 0.975481
vt 0.327971 0.948530
vt 0.334395 0.948406
vt 0.340843 0.981597
vt 0.335425 0.981359
vt 0.311420 0.910041
vt 0.305373 0.910508
vt 0.227185 0.811707
vt 0.231611 0.805953
vt 0.076261 0.953156
vt 0.117712 0.913440
vt 0.114460 0.905553
vt 0.053647 0.960534
vt 0.227565 0.805094
vt 0.222594 0.808552
vt 0.021949 0.976134
vt 0.022613 0.976134
vt 0.020957 0.975342
vt 0.031876 0.980805
vt 0.341449 0.983306
vt 0.029737 0.984891
vt 0.030293 0.986039
vt 0.983033 0.016097
vt 0.341105 0.982430
vt 0.335359 0.982199
vt 0.031406 0.981889
vt 0.337017 0.947427
vt 0.344025 0.980699
vt 0.341841 0.981511
vt 0.335756 0.948181
vt 0.235736 0.803274
vt 0.313707 0.908997
vt 0.312947 0.909805
vt 0.233666 0.804219
vt 0.341818 0.982645
vt 0.341396 0.981609
vt 0.335213 0.948392
vt 0.232983 0.804804
vt 0.312224 0.909983
vt 0.029831 0.013618
vt 0.030520 0.342051
vt 0.027751 0.322586
vt 0.032673 0.346940
vt 0.031411 0.344574
vt 0.027576 0.321480
vt 0.027249 0.320002
vt 0.974133 0.941301
vt 0.974133 0.595149
vt 0.723859 0.595149
vt 0.723859 0.941301
vt 0.655230 0.946968
vt 0.405133 0.945912
vt 0.405131 0.946528
vt 0.655228 0.947583
vt 0.404203 0.944974
vt 0.405453 0.598199
vt 0.404837 0.598196
vt 0.403588 0.944971
vt 0.406388 0.597268
vt 0.655496 0.597661
vt 0.655497 0.597045
vt 0.406388 0.596652
vt 0.656428 0.598594
vt 0.656166 0.946034
vt 0.656782 0.946034
vt 0.657044 0.598594
vt 0.655498 0.598567
vt 0.406357 0.598198
vt 0.405132 0.945015
vt 0.655269 0.946039
vt 0.404847 0.944977
vt 0.404205 0.945179
vt 0.404686 0.945124
vt 0.406115 0.598048
vt 0.406096 0.598200
vt 0.655232 0.946324
vt 0.655435 0.946966
vt 0.655379 0.946485
vt 0.655649 0.598323
vt 0.655495 0.598304
vt 0.655432 0.947587
vt 0.655225 0.948225
vt 0.655373 0.948056
vt 0.403584 0.945176
vt 0.402950 0.944966
vt 0.403117 0.945123
vt 0.406182 0.596649
vt 0.406388 0.596010
vt 0.406240 0.596161
vt 0.657047 0.598389
vt 0.657686 0.598594
vt 0.657507 0.598446
vt 0.405136 0.945269
vt 0.655523 0.946035
vt 0.655785 0.598594
vt 0.406385 0.597911
vt 0.405129 0.947142
vt 0.405127 0.947452
vt 0.655261 0.948510
vt 0.404185 0.598194
vt 0.403903 0.598194
vt 0.402665 0.944979
vt 0.655498 0.596429
vt 0.655498 0.596120
vt 0.406354 0.595724
vt 0.657411 0.946035
vt 0.657710 0.946034
vt 0.657970 0.598555
vt 0.656785 0.946240
vt 0.656164 0.946240
vt 0.404926 0.946530
vt 0.404928 0.945909
vt 0.404835 0.597990
vt 0.405457 0.597993
vt 0.655702 0.597043
vt 0.655701 0.597664
vt 0.404929 0.945423
vt 0.404913 0.945246
vt 0.406231 0.597915
vt 0.406181 0.597270
vt 0.655678 0.946240
vt 0.655500 0.946259
vt 0.655781 0.598439
vt 0.656426 0.598389
vt 0.655496 0.948280
vt 0.657258 0.946240
vt 0.402872 0.945219
vt 0.404923 0.946993
vt 0.406123 0.595930
vt 0.404344 0.597988
vt 0.657726 0.598319
vt 0.655704 0.596578
vt 0.235736 0.754774
vt 0.233766 0.754770
vt 0.232983 0.754768
vt 0.231611 0.754764
vt 0.227565 0.754767
vt 0.222594 0.754755
vt 0.117811 0.754415
vt 0.056395 0.754222
vt 0.026597 0.754170
vt 0.023567 0.754170
vt 0.022604 0.754168
vt 0.021949 0.754168
vt 0.020957 0.754170
vt 0.762503 0.016097
vt 0.762503 0.317156
vt 0.762503 0.322847
vt 0.762503 0.324321
vt 0.762503 0.325388
vt 0.762513 0.344645
vt 0.762516 0.346983
vt 0.762520 0.349117
vt 0.762526 0.351048
vt 0.762899 0.509962
vt 0.250044 0.511005
vt 0.250041 0.510504
vt 0.250039 0.509958
vt 0.250037 0.509059
vt 0.250408 0.349844
vt 0.250414 0.347862
vt 0.250418 0.345688
vt 0.250420 0.343309
vt 0.250430 0.323936
vt 0.250431 0.322830
vt 0.250431 0.321347
vt 0.250433 0.013618
vt 0.235736 0.755154
vt 0.233766 0.755158
vt 0.232983 0.755161
vt 0.231611 0.755166
vt 0.227565 0.755162
vt 0.222594 0.755177
vt 0.117808 0.755600
vt 0.056393 0.755840
vt 0.026597 0.755905
vt 0.023567 0.755905
vt 0.022604 0.755908
vt 0.021949 0.755908
vt 0.020957 0.755905
vt 0.764232 0.016097
vt 0.764232 0.317156
vt 0.764232 0.322847
vt 0.764232 0.324321
vt 0.764231 0.325388
vt 0.764219 0.344645
vt 0.764216 0.346983
vt 0.764211 0.349117
vt 0.764203 0.351048
vt 0.763738 0.509893
vt 0.249187 0.510936
vt 0.249190 0.510434
vt 0.249192 0.509889
vt 0.249195 0.508990
vt 0.248733 0.349843
vt 0.248726 0.347860
vt 0.248721 0.345686
vt 0.248718 0.343308
vt 0.248706 0.323934
vt 0.248705 0.322828
vt 0.248704 0.321346
vt 0.248703 0.013618
vt 0.724102 0.595149
vt 0.655256 0.596120
vt 0.724102 0.941301
vt 0.655018 0.948509
vt 0.654982 0.948224
vt 0.654985 0.947582
vt 0.654987 0.946967
vt 0.654989 0.946323
vt 0.655026 0.946038
vt 0.655256 0.598567
vt 0.655253 0.598304
vt 0.655254 0.597661
vt 0.655255 0.597045
vt 0.655256 0.596429
vt 0.723859 0.595396
vt 0.657970 0.598803
vt 0.724102 0.595396
vt 0.974133 0.595396
vt 0.403902 0.598442
vt 0.404184 0.598442
vt 0.404836 0.598444
vt 0.405452 0.598447
vt 0.406095 0.598448
vt 0.406356 0.598446
vt 0.655256 0.598815
vt 0.655498 0.598815
vt 0.655785 0.598842
vt 0.656428 0.598842
vt 0.657044 0.598842
vt 0.657686 0.598842
vt 0.974133 0.941083
vt 0.402666 0.944761
vt 0.724102 0.941083
vt 0.723859 0.941083
vt 0.657710 0.945815
vt 0.657411 0.945816
vt 0.656782 0.945815
vt 0.656166 0.945815
vt 0.655523 0.945816
vt 0.655269 0.945820
vt 0.655026 0.945819
vt 0.405133 0.944797
vt 0.404848 0.944759
vt 0.404204 0.944756
vt 0.403589 0.944753
vt 0.402951 0.944748
vt 0.973912 0.941301
vt 0.405348 0.947453
vt 0.973912 0.941083
vt 0.973912 0.595396
vt 0.973912 0.595149
vt 0.406574 0.595724
vt 0.406608 0.596010
vt 0.406608 0.596652
vt 0.406608 0.597268
vt 0.406605 0.597911
vt 0.406577 0.598198
vt 0.406576 0.598446
vt 0.405354 0.944798
vt 0.405353 0.945016
vt 0.405357 0.945270
vt 0.405354 0.945913
vt 0.405352 0.946529
vt 0.405350 0.947143
vn 0.383492 0.916382 0.114798
vn 0.396407 0.914215 0.084101
vn 0.000046 0.982429 0.186639
vn 0.000046 0.982429 0.186639
vn 0.001644 0.972989 0.230846
vn 0.001644 0.972989 0.230846
vn 0.356494 0.901685 -0.244696
vn 0.309291 0.929071 -0.202894
vn 0.988441 0.000200 -0.151606
vn 0.979180 0.000300 -0.202996
vn 0.916644 0.379918 -0.124206
vn 0.920826 0.383911 -0.068502
vn 0.592009 0.330805 -0.734911
vn 0.674386 0.317594 -0.666586
vn 0.636603 -0.123101 -0.761304
vn 0.536292 -0.265496 -0.801188
vn 0.000000 -1.000000 0.000000
vn 0.261198 -0.962693 -0.070699
vn 0.391081 -0.920356 -0.000000
vn 0.000000 -1.000000 0.000000
vn 0.212500 -0.854499 -0.473999
vn -0.001651 -0.972999 -0.230802
vn -0.001651 -0.972999 -0.230802
vn 0.241704 -0.814312 -0.527708
vn 0.000294 -0.982938 -0.183938
vn 0.000300 -0.983373 -0.181595
vn 0.000600 -0.983519 -0.180803
vn 0.000294 -0.982938 -0.183938
vn 0.955841 0.293712 0.010100
vn 0.950182 0.311694 0.000000
vn 0.927355 -0.374182 -0.000000
vn 0.966215 -0.257504 -0.011000
vn 0.396407 0.914215 0.084101
vn 0.406587 0.913571 -0.008700
vn 0.000172 0.980746 0.195288
vn 0.000172 0.980746 0.195288
vn 0.674386 0.317594 -0.666586
vn 0.794689 0.354295 -0.492893
vn 0.817594 0.000100 -0.575796
vn 0.636603 -0.123101 -0.761304
vn -0.000400 -0.982457 -0.186492
vn -0.001208 -0.971470 -0.237161
vn -0.001208 -0.971469 -0.237162
vn 0.212500 -0.854499 -0.473999
vn 0.406587 0.913571 -0.008700
vn 0.389207 0.911916 -0.130102
vn 0.000525 0.976695 0.214632
vn 0.000525 0.976695 0.214632
vn 0.389207 0.911916 -0.130102
vn 0.356494 0.901685 -0.244696
vn 0.001210 0.971390 0.237488
vn 0.001210 0.971390 0.237486
vn 0.794689 0.354295 -0.492893
vn 0.882323 0.372310 -0.287908
vn 0.929624 0.000100 -0.368509
vn 0.817594 0.000100 -0.575796
vn 0.882323 0.372310 -0.287908
vn 0.916644 0.379918 -0.124206
vn 0.979180 0.000300 -0.202996
vn 0.929624 0.000100 -0.368509
vn -0.000100 -0.983059 -0.183292
vn -0.000498 -0.976991 -0.213280
vn -0.000498 -0.976991 -0.213280
vn -0.000400 -0.982457 -0.186492
vn -0.000100 -0.983059 -0.183292
vn 0.000300 -0.983373 -0.181595
vn -0.000106 -0.981248 -0.192751
vn -0.000106 -0.981248 -0.192751
vn 0.466616 0.883630 0.038301
vn 0.388793 0.917084 0.088298
vn -0.000214 0.988015 0.154357
vn -0.000214 0.988015 0.154357
vn 0.930991 0.362996 -0.038600
vn 0.955841 0.293712 0.010100
vn 0.966215 -0.257504 -0.011000
vn 0.996304 0.000000 -0.085900
vn 0.000306 -0.987935 -0.154866
vn 0.000306 -0.987935 -0.154866
vn 0.000300 -0.981725 -0.190305
vn 0.261198 -0.962693 -0.070699
vn 0.388793 0.917084 0.088298
vn 0.383492 0.916382 0.114798
vn 0.000012 0.982399 0.186792
vn 0.000012 0.982399 0.186792
vn 0.996304 0.000000 -0.085900
vn 0.988441 0.000200 -0.151606
vn 0.920826 0.383911 -0.068502
vn 0.930991 0.362996 -0.038600
vn 0.000589 -0.982948 -0.183883
vn 0.000589 -0.982948 -0.183883
vn 0.000600 -0.983519 -0.180803
vn 0.000300 -0.981725 -0.190305
vn 0.388793 0.917084 0.088298
vn 0.466616 0.883630 0.038301
vn 0.955841 0.293712 0.010100
vn 0.930991 0.362996 -0.038600
vn 0.309291 0.929071 -0.202894
vn 0.356494 0.901685 -0.244696
vn 0.674386 0.317594 -0.666586
vn 0.592009 0.330805 -0.734911
vn 0.536292 -0.265496 -0.801188
vn 0.636603 -0.123101 -0.761304
vn 0.212500 -0.854499 -0.473999
vn 0.241704 -0.814312 -0.527708
vn 0.927355 -0.374182 -0.000000
vn 0.391081 -0.920356 -0.000000
vn 0.261198 -0.962693 -0.070699
vn 0.966215 -0.257504 -0.011000
vn 0.406587 0.913571 -0.008700
vn 0.396407 0.914215 0.084101
vn 0.916644 0.379918 -0.124206
vn 0.882323 0.372310 -0.287908
vn 0.356494 0.901685 -0.244696
vn 0.389207 0.911916 -0.130102
vn 0.794689 0.354295 -0.492893
vn 0.674386 0.317594 -0.666586
vn 0.389207 0.911916 -0.130102
vn 0.406587 0.913571 -0.008700
vn 0.882323 0.372310 -0.287908
vn 0.794689 0.354295 -0.492893
vn 0.396407 0.914215 0.084101
vn 0.383492 0.916382 0.114798
vn 0.920826 0.383911 -0.068502
vn 0.916644 0.379918 -0.124206
vn 0.930991 0.362996 -0.038600
vn 0.920826 0.383911 -0.068502
vn 0.383492 0.916382 0.114798
vn 0.388793 0.917084 0.088298
vn 0.649742 0.760150 0.002700
vn 0.479399 0.877597 0.000100
vn 0.966435 0.256909 0.000000
vn 0.950182 0.311694 0.000000
vn -0.000200 0.847953 0.530071
vn -0.000135 0.623614 0.781732
vn -0.000135 0.623614 0.781732
vn 0.479399 0.877597 0.000100
vn 0.133598 0.912987 -0.385495
vn 0.005700 0.990121 -0.140103
vn 0.117797 0.987071 0.108697
vn 0.225305 0.974120 0.018100
vn 0.029001 0.998942 0.035701
vn 0.053599 0.998091 0.030700
vn -0.105996 0.976261 -0.188892
vn -0.544284 0.448287 -0.709079
vn 0.005700 0.990121 -0.140103
vn -0.105996 0.976261 -0.188892
vn 0.053599 0.998091 0.030700
vn 0.117797 0.987071 0.108697
vn 0.036002 0.999348 0.002600
vn 0.117797 0.987071 0.108697
vn 0.053599 0.998091 0.030700
vn 0.024501 0.999644 0.010600
vn 0.000000 0.998508 0.054600
vn -0.000600 0.999333 0.036501
vn -0.000697 0.999221 0.039467
vn -0.000697 0.999221 0.039467
vn -0.002000 0.999572 0.029199
vn -0.002100 0.999094 0.042500
vn -0.001143 0.998651 0.051915
vn -0.001143 0.998651 0.051915
vn 0.029001 0.998942 0.035701
vn 0.024501 0.999644 0.010600
vn 0.053599 0.998091 0.030700
vn 0.000000 0.000000 1.000000
vn 0.000000 0.000000 1.000000
vn 0.000000 -0.212396 0.977184
vn 0.966435 0.256909 0.000000
vn 0.000000 -0.560526 0.828137
vn 0.000000 -0.560526 0.828137
vn 0.000000 -0.560479 0.828169
vn 0.000000 -0.212396 0.977184
vn -0.000121 0.551341 0.834280
vn -0.000121 0.551341 0.834280
vn 0.966435 0.256909 0.000000
vn 0.479399 0.877597 0.000100
vn 0.258596 0.965985 0.000600
vn 0.225305 0.974120 0.018100
vn 0.117797 0.987071 0.108697
vn 0.036002 0.999348 0.002600
vn 0.466616 0.883630 0.038301
vn 0.649742 0.760150 0.002700
vn 0.950182 0.311694 0.000000
vn 0.955841 0.293712 0.010100
vn 0.927355 -0.374182 -0.000000
vn 0.950182 0.311694 0.000000
vn 0.966435 0.256909 0.000000
vn 0.000000 -0.212396 0.977184
vn 0.391081 -0.920356 -0.000000
vn 0.927355 -0.374182 -0.000000
vn 0.000000 -0.212396 0.977184
vn 0.000000 -0.560479 0.828169
vn 0.000000 -1.000000 0.000000
vn 0.391081 -0.920356 -0.000000
vn 0.000000 -0.560479 0.828169
vn 0.000000 -1.000000 0.000000
vn -0.000600 0.999333 0.036501
vn -0.002000 0.999572 0.029199
vn -0.001795 0.999688 0.024896
vn -0.001795 0.999688 0.024896
vn 0.592009 0.330805 -0.734911
vn 0.536292 -0.265496 -0.801188
vn 0.588938 0.006223 -0.808154
vn 0.588938 0.006225 -0.808154
vn 0.309291 0.929071 -0.202894
vn 0.592009 0.330805 -0.734911
vn 0.516940 0.651735 -0.554991
vn 0.516984 0.651627 -0.555076
vn 0.536292 -0.265496 -0.801188
vn 0.241704 -0.814312 -0.527708
vn 0.432958 -0.536809 -0.724143
vn 0.432908 -0.536909 -0.724099
vn 0.000006 0.998181 0.060282
vn 0.000006 0.998181 0.060282
vn -0.000200 0.847953 0.530071
vn 0.000000 0.998508 0.054600
vn 0.225305 0.974120 0.018100
vn 0.335786 0.941862 0.012000
vn 0.116403 0.757122 -0.642819
vn 0.133598 0.912987 -0.385495
vn 0.479399 0.877597 0.000100
vn 0.649742 0.760150 0.002700
vn 0.335786 0.941862 0.012000
vn 0.315598 0.948893 0.000500
vn 0.029001 0.998942 0.035701
vn -0.544284 0.448287 -0.709079
vn -0.002100 0.999094 0.042500
vn -0.002000 0.999572 0.029199
vn 0.024501 0.999644 0.010600
vn 0.029001 0.998942 0.035701
vn -0.002000 0.999572 0.029199
vn -0.000600 0.999333 0.036501
vn 0.024501 0.999644 0.010600
vn -0.000600 0.999333 0.036501
vn 0.000000 0.998508 0.054600
vn 0.036002 0.999348 0.002600
vn -0.000200 0.847953 0.530071
vn 0.258596 0.965985 0.000600
vn 0.036002 0.999348 0.002600
vn 0.000000 0.998508 0.054600
vn -0.213507 -0.267409 -0.939631
vn -0.220011 -0.788141 -0.574830
vn -0.351406 -0.599011 -0.719513
vn -0.365006 -0.410307 -0.835714
vn -0.482698 -0.613498 -0.624998
vn -0.483197 -0.612496 -0.625596
vn -0.186999 -0.755497 -0.627898
vn -0.173693 -0.685374 -0.707173
vn -0.365006 -0.410307 -0.835714
vn -0.351406 -0.599011 -0.719513
vn -0.483197 -0.612496 -0.625596
vn -0.482698 -0.613498 -0.624998
vn -0.002100 0.999094 0.042500
vn -0.544284 0.448287 -0.709079
vn 0.001859 -0.733315 -0.679886
vn 0.001859 -0.733315 -0.679887
vn -0.007578 -0.793319 -0.608760
vn -0.173693 -0.685374 -0.707173
vn -0.186999 -0.755497 -0.627898
vn -0.007578 -0.793320 -0.608758
vn 0.466616 0.883630 0.038301
vn -0.151796 0.008700 -0.988374
vn -0.213507 -0.267409 -0.939631
vn -0.126303 0.354408 -0.926522
vn -0.126303 0.354408 -0.926522
vn -0.284496 0.440294 -0.851589
vn 0.005700 0.990121 -0.140103
vn 0.133598 0.912987 -0.385495
vn -0.483413 0.457513 -0.746320
vn -0.590383 -0.252293 -0.766678
vn -0.544284 0.448287 -0.709079
vn -0.105996 0.976261 -0.188892
vn -0.284496 0.440294 -0.851589
vn -0.483413 0.457513 -0.746320
vn -0.105996 0.976261 -0.188892
vn 0.005700 0.990121 -0.140103
vn -0.213507 -0.267409 -0.939631
vn -0.365006 -0.410307 -0.835714
vn -0.284496 0.440294 -0.851589
vn -0.126303 0.354408 -0.926522
vn -0.482698 -0.613498 -0.624998
vn -0.173693 -0.685374 -0.707173
vn -0.590383 -0.252293 -0.766678
vn -0.483413 0.457513 -0.746320
vn -0.365006 -0.410307 -0.835714
vn -0.482698 -0.613498 -0.624998
vn -0.483413 0.457513 -0.746320
vn -0.284496 0.440294 -0.851589
vn 0.133598 0.912987 -0.385495
vn 0.116403 0.757122 -0.642819
vn 0.466616 0.883630 0.038301
vn -0.126303 0.354408 -0.926522
vn 0.335786 0.941862 0.012000
vn 0.649742 0.760150 0.002700
vn 0.466616 0.883630 0.038301
vn 0.116403 0.757122 -0.642819
vn 0.258596 0.965985 0.000600
vn 0.315598 0.948893 0.000500
vn 0.335786 0.941862 0.012000
vn 0.225305 0.974120 0.018100
vn -0.590383 -0.252293 -0.766678
vn -0.173693 -0.685374 -0.707173
vn -0.002256 -0.692815 -0.721112
vn -0.002257 -0.692819 -0.721108
vn -0.544284 0.448287 -0.709079
vn -0.590383 -0.252293 -0.766678
vn 0.002106 -0.743532 -0.668697
vn 0.002106 -0.743535 -0.668694
vn -0.000385 1.000000 0.000038
vn -0.000385 1.000000 0.000038
vn 0.479399 0.877597 0.000100
vn 0.466616 0.883630 0.038301
vn 0.000600 -0.983519 -0.180803
vn 0.000300 -0.983373 -0.181595
vn 0.979180 0.000300 -0.202996
vn 0.988441 0.000200 -0.151606
vn -0.000400 -0.982457 -0.186492
vn 0.212500 -0.854499 -0.473999
vn 0.636603 -0.123101 -0.761304
vn 0.817594 0.000100 -0.575796
vn -0.000100 -0.983059 -0.183292
vn -0.000400 -0.982457 -0.186492
vn 0.817594 0.000100 -0.575796
vn 0.929624 0.000100 -0.368509
vn 0.000300 -0.983373 -0.181595
vn -0.000100 -0.983059 -0.183292
vn 0.929624 0.000100 -0.368509
vn 0.979180 0.000300 -0.202996
vn 0.261198 -0.962693 -0.070699
vn 0.000300 -0.981725 -0.190305
vn 0.996304 0.000000 -0.085900
vn 0.966215 -0.257504 -0.011000
vn 0.000300 -0.981725 -0.190305
vn 0.000600 -0.983519 -0.180803
vn 0.988441 0.000200 -0.151606
vn 0.996304 0.000000 -0.085900
vn 0.000100 0.980742 0.195308
vn -0.000046 0.982429 0.186639
vn -0.000046 0.982429 0.186639
vn 0.000000 0.982340 0.187108
vn -0.001644 0.972989 0.230846
vn 0.001200 0.966360 0.257189
vn 0.383000 0.866699 -0.319600
vn -0.001644 0.972989 0.230846
vn 0.916644 0.379918 -0.124206
vn 0.979180 0.000300 -0.202996
vn 0.988441 0.000200 -0.151606
vn 0.920826 0.383911 -0.068502
vn 0.636603 -0.123101 -0.761304
vn 0.674386 0.317594 -0.666586
vn 0.592009 0.330805 -0.734911
vn 0.536292 -0.265496 -0.801188
vn 0.000000 -1.000000 0.000000
vn 0.000000 -1.000000 0.000000
vn 0.000300 -0.998486 -0.054999
vn 0.000000 -1.000000 -0.000000
vn 0.310715 -0.734636 -0.603130
vn -0.001600 -0.966303 -0.257401
vn 0.001651 -0.972999 -0.230802
vn 0.001651 -0.972999 -0.230802
vn -0.000294 -0.982938 -0.183938
vn -0.000294 -0.982938 -0.183939
vn -0.000100 -0.980742 -0.195308
vn 0.000300 -0.982380 -0.186896
vn 0.927355 -0.374182 -0.000000
vn 0.950182 0.311694 0.000000
vn 0.955841 0.293712 0.010100
vn 0.966215 -0.257504 -0.011000
vn 0.000200 0.975001 0.222200
vn -0.000172 0.980746 0.195287
vn -0.000172 0.980746 0.195287
vn 0.000100 0.980742 0.195308
vn 0.817594 0.000100 -0.575796
vn 0.794689 0.354295 -0.492893
vn 0.674386 0.317594 -0.666586
vn 0.636603 -0.123101 -0.761304
vn -0.001600 -0.966303 -0.257401
vn -0.001200 -0.965012 -0.262203
vn 0.001208 -0.971470 -0.237161
vn 0.001208 -0.971469 -0.237163
vn 0.000500 0.964987 0.262297
vn -0.000525 0.976695 0.214631
vn -0.000525 0.976695 0.214631
vn 0.000200 0.975001 0.222200
vn 0.001200 0.966360 0.257189
vn -0.001210 0.971389 0.237490
vn -0.001210 0.971390 0.237487
vn 0.000500 0.964987 0.262297
vn 0.929624 0.000100 -0.368509
vn 0.882323 0.372310 -0.287908
vn 0.794689 0.354295 -0.492893
vn 0.817594 0.000100 -0.575796
vn 0.979180 0.000300 -0.202996
vn 0.916644 0.379918 -0.124206
vn 0.882323 0.372310 -0.287908
vn 0.929624 0.000100 -0.368509
vn -0.001200 -0.965012 -0.262203
vn -0.000500 -0.975001 -0.222200
vn 0.000498 -0.976991 -0.213279
vn 0.000498 -0.976991 -0.213280
vn -0.000100 -0.980742 -0.195308
vn 0.000106 -0.981248 -0.192751
vn 0.000106 -0.981248 -0.192751
vn -0.000500 -0.975001 -0.222200
vn -0.000200 0.982340 0.187108
vn 0.000214 0.988015 0.154357
vn 0.000214 0.988015 0.154356
vn -0.000400 0.995563 0.094097
vn 0.966215 -0.257504 -0.011000
vn 0.955841 0.293712 0.010100
vn 0.930991 0.362996 -0.038600
vn 0.996304 0.000000 -0.085900
vn -0.000306 -0.987935 -0.154867
vn 0.000600 -0.988927 -0.148404
vn 0.000300 -0.998486 -0.054999
vn -0.000306 -0.987935 -0.154867
vn 0.000000 0.982340 0.187108
vn -0.000012 0.982399 0.186792
vn -0.000012 0.982399 0.186792
vn -0.000200 0.982340 0.187108
vn 0.920826 0.383911 -0.068502
vn 0.988441 0.000200 -0.151606
vn 0.996304 0.000000 -0.085900
vn 0.930991 0.362996 -0.038600
vn -0.000589 -0.982948 -0.183884
vn 0.000300 -0.982380 -0.186896
vn 0.000600 -0.988927 -0.148404
vn -0.000589 -0.982948 -0.183884
vn 0.955841 0.293712 0.010100
vn 0.466616 0.883630 0.038301
vn 0.388793 0.917084 0.088298
vn 0.930991 0.362996 -0.038600
vn 0.674386 0.317594 -0.666586
vn 0.356494 0.901685 -0.244696
vn 0.309291 0.929071 -0.202894
vn 0.592009 0.330805 -0.734911
vn 0.212500 -0.854499 -0.473999
vn 0.636603 -0.123101 -0.761304
vn 0.536292 -0.265496 -0.801188
vn 0.241704 -0.814312 -0.527708
vn 0.261198 -0.962693 -0.070699
vn 0.391081 -0.920356 -0.000000
vn 0.927355 -0.374182 -0.000000
vn 0.966215 -0.257504 -0.011000
vn 0.916644 0.379918 -0.124206
vn 0.396407 0.914215 0.084101
vn 0.406587 0.913571 -0.008700
vn 0.882323 0.372310 -0.287908
vn 0.794689 0.354295 -0.492893
vn 0.389207 0.911916 -0.130102
vn 0.356494 0.901685 -0.244696
vn 0.674386 0.317594 -0.666586
vn 0.882323 0.372310 -0.287908
vn 0.406587 0.913571 -0.008700
vn 0.389207 0.911916 -0.130102
vn 0.794689 0.354295 -0.492893
vn 0.920826 0.383911 -0.068502
vn 0.383492 0.916382 0.114798
vn 0.396407 0.914215 0.084101
vn 0.916644 0.379918 -0.124206
vn 0.383492 0.916382 0.114798
vn 0.920826 0.383911 -0.068502
vn 0.930991 0.362996 -0.038600
vn 0.388793 0.917084 0.088298
vn 0.966435 0.256909 0.000000
vn 0.479399 0.877597 0.000100
vn 0.649742 0.760150 0.002700
vn 0.950182 0.311694 0.000000
vn 0.000000 0.595414 0.803419
vn 0.000000 0.885204 0.465202
vn 0.000135 0.623614 0.781732
vn 0.000135 0.623614 0.781732
vn 0.117797 0.987071 0.108697
vn 0.005700 0.990121 -0.140103
vn 0.133598 0.912987 -0.385495
vn 0.225305 0.974120 0.018100
vn -0.105996 0.976261 -0.188892
vn 0.053599 0.998091 0.030700
vn 0.029001 0.998942 0.035701
vn -0.544284 0.448287 -0.709079
vn 0.053599 0.998091 0.030700
vn -0.105996 0.976261 -0.188892
vn 0.005700 0.990121 -0.140103
vn 0.117797 0.987071 0.108697
vn 0.053599 0.998091 0.030700
vn 0.117797 0.987071 0.108697
vn 0.036002 0.999348 0.002600
vn 0.024501 0.999644 0.010600
vn -0.001700 0.999518 0.031001
vn 0.000697 0.999221 0.039467
vn 0.000697 0.999221 0.039467
vn -0.000600 0.998789 0.049199
vn 0.000000 0.997995 0.063300
vn 0.001143 0.998651 0.051916
vn 0.001143 0.998651 0.051915
vn -0.001200 0.999061 0.043298
vn 0.024501 0.999644 0.010600
vn 0.029001 0.998942 0.035701
vn 0.053599 0.998091 0.030700
vn 0.000000 0.000000 1.000000
vn 0.000000 -0.293095 0.956083
vn 0.000000 0.301189 0.953565
vn 0.000000 0.000000 1.000000
vn 0.000000 -0.560526 0.828137
vn 0.000000 -0.560410 0.828215
vn 0.000000 -0.293095 0.956083
vn 0.000000 -0.560526 0.828137
vn 0.000121 0.551341 0.834280
vn 0.000000 0.301189 0.953565
vn 0.000000 0.595414 0.803419
vn 0.000121 0.551341 0.834280
vn 0.117797 0.987071 0.108697
vn 0.225305 0.974120 0.018100
vn 0.258596 0.965985 0.000600
vn 0.036002 0.999348 0.002600
vn 0.950182 0.311694 0.000000
vn 0.649742 0.760150 0.002700
vn 0.466616 0.883630 0.038301
vn 0.955841 0.293712 0.010100
vn 0.966435 0.256909 0.000000
vn 0.950182 0.311694 0.000000
vn 0.927355 -0.374182 -0.000000
vn 0.000000 -0.212396 0.977184
vn 0.000000 -0.212396 0.977184
vn 0.927355 -0.374182 -0.000000
vn 0.391081 -0.920356 -0.000000
vn 0.000000 -0.560479 0.828169
vn 0.000000 -1.000000 0.000000
vn 0.000000 -1.000000 0.000000
vn 0.000000 -1.000000 -0.000000
vn 0.000000 -0.560410 0.828215
vn -0.001200 0.999061 0.043298
vn 0.001795 0.999689 0.024896
vn 0.001795 0.999689 0.024896
vn -0.001700 0.999518 0.031001
vn 0.548103 -0.221301 -0.806604
vn -0.588941 0.006196 -0.808152
vn -0.588941 0.006198 -0.808152
vn 0.591496 0.335498 -0.733195
vn 0.591496 0.335498 -0.733195
vn -0.516930 0.651755 -0.554977
vn -0.516984 0.651621 -0.555083
vn 0.383000 0.866699 -0.319600
vn 0.310715 -0.734636 -0.603130
vn -0.432963 -0.536797 -0.724149
vn -0.432902 -0.536920 -0.724094
vn 0.548103 -0.221301 -0.806604
vn -0.000006 0.998181 0.060282
vn 0.000000 0.885204 0.465202
vn -0.000600 0.998789 0.049199
vn -0.000006 0.998181 0.060282
vn 0.116403 0.757122 -0.642819
vn 0.335786 0.941862 0.012000
vn 0.225305 0.974120 0.018100
vn 0.133598 0.912987 -0.385495
vn 0.335786 0.941862 0.012000
vn 0.649742 0.760150 0.002700
vn 0.479399 0.877597 0.000100
vn 0.315598 0.948893 0.000500
vn -0.002100 0.999094 0.042500
vn -0.544284 0.448287 -0.709079
vn 0.029001 0.998942 0.035701
vn -0.002000 0.999572 0.029199
vn -0.002000 0.999572 0.029199
vn 0.029001 0.998942 0.035701
vn 0.024501 0.999644 0.010600
vn -0.000600 0.999333 0.036501
vn 0.000000 0.998508 0.054600
vn -0.000600 0.999333 0.036501
vn 0.024501 0.999644 0.010600
vn 0.036002 0.999348 0.002600
vn 0.036002 0.999348 0.002600
vn 0.258596 0.965985 0.000600
vn -0.000200 0.847953 0.530071
vn 0.000000 0.998508 0.054600
vn -0.351406 -0.599011 -0.719513
vn -0.220011 -0.788141 -0.574830
vn -0.213507 -0.267409 -0.939631
vn -0.365006 -0.410307 -0.835714
vn -0.186999 -0.755497 -0.627898
vn -0.483197 -0.612496 -0.625596
vn -0.482698 -0.613498 -0.624998
vn -0.173693 -0.685374 -0.707173
vn -0.483197 -0.612496 -0.625596
vn -0.351406 -0.599011 -0.719513
vn -0.365006 -0.410307 -0.835714
vn -0.482698 -0.613498 -0.624998
vn 0.003600 -0.749217 -0.662315
vn -0.001859 -0.733315 -0.679886
vn -0.001859 -0.733315 -0.679887
vn 0.000000 0.997995 0.063300
vn 0.007578 -0.793320 -0.608758
vn 0.007578 -0.793318 -0.608760
vn -0.004500 -0.795688 -0.605691
vn -0.009100 -0.812577 -0.582783
vn -0.213507 -0.267409 -0.939631
vn -0.151796 0.008700 -0.988374
vn 0.466616 0.883630 0.038301
vn -0.126303 0.354408 -0.926522
vn 0.005700 0.990121 -0.140103
vn -0.284496 0.440294 -0.851589
vn -0.126303 0.354408 -0.926522
vn 0.133598 0.912987 -0.385495
vn -0.544284 0.448287 -0.709079
vn -0.590383 -0.252293 -0.766678
vn -0.483413 0.457513 -0.746320
vn -0.105996 0.976261 -0.188892
vn -0.105996 0.976261 -0.188892
vn -0.483413 0.457513 -0.746320
vn -0.284496 0.440294 -0.851589
vn 0.005700 0.990121 -0.140103
vn -0.284496 0.440294 -0.851589
vn -0.365006 -0.410307 -0.835714
vn -0.213507 -0.267409 -0.939631
vn -0.126303 0.354408 -0.926522
vn -0.590383 -0.252293 -0.766678
vn -0.173693 -0.685374 -0.707173
vn -0.482698 -0.613498 -0.624998
vn -0.483413 0.457513 -0.746320
vn -0.483413 0.457513 -0.746320
vn -0.482698 -0.613498 -0.624998
vn -0.365006 -0.410307 -0.835714
vn -0.284496 0.440294 -0.851589
vn 0.466616 0.883630 0.038301
vn 0.116403 0.757122 -0.642819
vn 0.133598 0.912987 -0.385495
vn -0.126303 0.354408 -0.926522
vn 0.466616 0.883630 0.038301
vn 0.649742 0.760150 0.002700
vn 0.335786 0.941862 0.012000
vn 0.116403 0.757122 -0.642819
vn 0.335786 0.941862 0.012000
vn 0.315598 0.948893 0.000500
vn 0.258596 0.965985 0.000600
vn 0.225305 0.974120 0.018100
vn -0.004500 -0.795688 -0.605691
vn 0.002257 -0.692816 -0.721111
vn 0.002257 -0.692819 -0.721108
vn 0.001600 -0.781277 -0.624182
vn 0.001600 -0.781277 -0.624182
vn -0.002106 -0.743532 -0.668697
vn -0.002106 -0.743535 -0.668694
vn 0.003600 -0.749217 -0.662315
vn 0.000385 1.000000 0.000038
vn -0.000300 1.000000 0.000000
vn -0.000400 0.995563 0.094097
vn 0.000385 1.000000 0.000038
vn 0.979180 0.000300 -0.202996
vn 0.000300 -0.983373 -0.181595
vn 0.000600 -0.983519 -0.180803
vn 0.988441 0.000200 -0.151606
vn 0.636603 -0.123101 -0.761304
vn 0.212500 -0.854499 -0.473999
vn -0.000400 -0.982457 -0.186492
vn 0.817594 0.000100 -0.575796
vn 0.817594 0.000100 -0.575796
vn -0.000400 -0.982457 -0.186492
vn -0.000100 -0.983059 -0.183292
vn 0.929624 0.000100 -0.368509
vn 0.929624 0.000100 -0.368509
vn -0.000100 -0.983059 -0.183292
vn 0.000300 -0.983373 -0.181595
vn 0.979180 0.000300 -0.202996
vn 0.996304 0.000000 -0.085900
vn 0.000300 -0.981725 -0.190305
vn 0.261198 -0.962693 -0.070699
vn 0.966215 -0.257504 -0.011000
vn 0.988441 0.000200 -0.151606
vn 0.000600 -0.983519 -0.180803
vn 0.000300 -0.981725 -0.190305
vn 0.996304 0.000000 -0.085900
vn 0.000000 1.000000 -0.000000
vn 0.000000 1.000000 0.000000
vn 0.000000 1.000000 0.000000
vn 0.000000 1.000000 -0.000000
vn -0.911984 0.000000 0.410226
vn -0.911984 0.000000 0.410226
vn -0.911984 0.000000 0.410226
vn -0.911984 0.000000 0.410226
vn 0.409663 0.000005 0.912237
vn 0.548052 -0.049657 0.834969
vn 0.547592 0.048998 0.835310
vn 0.409663 0.000005 0.912237
vn 0.913066 0.000000 -0.407811
vn 0.913066 0.000000 -0.407811
vn 0.913066 0.000000 -0.407811
vn 0.913066 0.000000 -0.407811
vn -0.255493 -0.049748 -0.965530
vn -0.407068 0.000000 -0.913398
vn -0.407068 0.000000 -0.913398
vn -0.278683 0.042879 -0.959425
vn 0.000000 -1.000000 0.000000
vn 0.000000 -1.000000 0.000000
vn -0.000000 -1.000000 0.000000
vn -0.000000 -1.000000 0.000000
vn 0.113600 -0.442021 0.889782
vn 0.283648 -0.041653 0.958023
vn -0.341130 -0.045315 0.938923
vn -0.283991 -0.199720 0.937796
vn 0.858694 -0.392588 0.329422
vn 0.503065 -0.394118 0.769153
vn 0.442470 -0.880788 0.168621
vn -0.889555 -0.442320 0.114212
vn -0.957999 -0.042322 0.283632
vn -0.938298 -0.046193 -0.342730
vn -0.937209 -0.201026 -0.285005
vn 0.328695 -0.392826 -0.858864
vn 0.770125 -0.394455 -0.501311
vn 0.169274 -0.881066 -0.441666
vn -0.938000 0.047063 -0.343425
vn -0.958138 0.043146 0.283039
vn -0.894486 0.434771 0.104256
vn -0.937017 0.197814 -0.287870
vn -0.342553 0.046998 0.938322
vn 0.282537 0.041882 0.958342
vn 0.088247 0.443504 0.891917
vn -0.289763 0.193671 0.937299
vn 0.938238 0.045023 0.343049
vn 0.958254 0.042430 -0.282754
vn 0.891441 0.436006 -0.123420
vn 0.937188 0.202729 0.283866
vn 0.345391 0.047478 -0.937257
vn -0.278683 0.042879 -0.959425
vn -0.088570 0.437987 -0.894608
vn 0.292440 0.194869 -0.936219
vn -0.907327 -0.100925 0.408132
vn -0.907327 -0.100925 0.408132
vn -0.907327 -0.100925 0.408132
vn -0.907327 -0.100925 0.408132
vn -0.404952 -0.101762 -0.908658
vn -0.404952 -0.101762 -0.908657
vn -0.255493 -0.049748 -0.965530
vn -0.238289 -0.394535 -0.887446
vn 0.908366 -0.101322 -0.405715
vn 0.908366 -0.101322 -0.405715
vn 0.908367 -0.101320 -0.405715
vn 0.908367 -0.101320 -0.405715
vn 0.503065 -0.394118 0.769153
vn 0.548052 -0.049657 0.834969
vn 0.407593 -0.100394 0.907628
vn 0.407593 -0.100394 0.907628
vn -0.691780 0.651604 0.311214
vn -0.691780 0.651603 0.311214
vn -0.691747 0.651645 0.311199
vn -0.691747 0.651645 0.311199
vn 0.592541 0.436486 0.677034
vn 0.478164 0.861472 0.170956
vn 0.298697 0.684354 0.665161
vn 0.298697 0.684354 0.665161
vn 0.691595 0.652883 -0.308934
vn 0.691595 0.652883 -0.308934
vn 0.691563 0.652923 -0.308920
vn 0.691563 0.652923 -0.308920
vn -0.304292 0.664262 -0.682761
vn -0.304292 0.664262 -0.682761
vn 0.195675 0.856741 -0.477186
vn -0.088570 0.437987 -0.894608
vn -0.938000 0.047063 -0.343425
vn -0.546877 0.050765 -0.835672
vn -0.546866 -0.049889 -0.835733
vn -0.938298 -0.046193 -0.342730
vn -0.342553 0.046998 0.938322
vn -0.833790 0.051260 0.549696
vn -0.833865 -0.049540 0.549741
vn -0.341130 -0.045315 0.938923
vn 0.938238 0.045023 0.343049
vn 0.547592 0.048998 0.835310
vn 0.548052 -0.049657 0.834969
vn 0.932787 -0.052933 0.356519
vn 0.345391 0.047478 -0.937257
vn 0.834825 0.051518 -0.548100
vn 0.834882 -0.049874 -0.548166
vn 0.356844 -0.052860 -0.932667
vn -0.682801 -0.428371 0.591845
vn -0.283991 -0.199720 0.937796
vn -0.341130 -0.045315 0.938923
vn -0.833865 -0.049540 0.549741
vn -0.179646 -0.863117 0.471970
vn 0.113600 -0.442021 0.889782
vn -0.283991 -0.199720 0.937796
vn -0.682801 -0.428371 0.591845
vn 0.888036 -0.393886 -0.237161
vn 0.858694 -0.392588 0.329422
vn 0.442470 -0.880788 0.168621
vn 0.932787 -0.052933 0.356519
vn 0.858694 -0.392588 0.329422
vn 0.888036 -0.393886 -0.237161
vn 0.965055 -0.049757 -0.257279
vn 0.548052 -0.049657 0.834969
vn 0.503065 -0.394118 0.769153
vn 0.858694 -0.392588 0.329422
vn 0.932787 -0.052933 0.356519
vn -0.591101 -0.429514 -0.682728
vn -0.937209 -0.201026 -0.285005
vn -0.938298 -0.046193 -0.342730
vn -0.546866 -0.049889 -0.835733
vn -0.471380 -0.863485 -0.179430
vn -0.889555 -0.442320 0.114212
vn -0.937209 -0.201026 -0.285005
vn -0.591101 -0.429514 -0.682728
vn -0.238289 -0.394535 -0.887446
vn 0.328695 -0.392826 -0.858864
vn 0.169274 -0.881066 -0.441666
vn 0.356844 -0.052860 -0.932667
vn 0.328695 -0.392826 -0.858864
vn -0.238289 -0.394535 -0.887446
vn -0.255493 -0.049748 -0.965530
vn 0.834882 -0.049874 -0.548166
vn 0.770125 -0.394455 -0.501311
vn 0.328695 -0.392826 -0.858864
vn 0.356844 -0.052860 -0.932667
vn -0.480525 0.857088 -0.185732
vn -0.589083 0.420348 -0.690137
vn -0.937017 0.197814 -0.287870
vn -0.894486 0.434771 0.104256
vn -0.589083 0.420348 -0.690137
vn -0.546877 0.050765 -0.835672
vn -0.938000 0.047063 -0.343425
vn -0.937017 0.197814 -0.287870
vn -0.197227 0.859781 0.471040
vn -0.698062 0.409523 0.587367
vn -0.289763 0.193671 0.937299
vn 0.088247 0.443504 0.891917
vn -0.698062 0.409523 0.587367
vn -0.833790 0.051260 0.549696
vn -0.342553 0.046998 0.938322
vn -0.289763 0.193671 0.937299
vn 0.478164 0.861472 0.170956
vn 0.592541 0.436486 0.677034
vn 0.937188 0.202729 0.283866
vn 0.891441 0.436006 -0.123420
vn 0.592541 0.436486 0.677034
vn 0.547592 0.048998 0.835310
vn 0.938238 0.045023 0.343049
vn 0.937188 0.202729 0.283866
vn 0.195675 0.856741 -0.477186
vn 0.698397 0.411040 -0.585908
vn 0.292440 0.194869 -0.936219
vn -0.088570 0.437987 -0.894608
vn 0.698397 0.411040 -0.585908
vn 0.834825 0.051518 -0.548100
vn 0.345391 0.047478 -0.937257
vn 0.292440 0.194869 -0.936219
vn -0.673129 -0.674699 0.302785
vn -0.673129 -0.674698 0.302785
vn -0.673130 -0.674698 0.302785
vn -0.673130 -0.674698 0.302785
vn -0.300202 -0.675377 -0.673606
vn -0.300202 -0.675377 -0.673606
vn -0.238289 -0.394535 -0.887446
vn 0.169274 -0.881066 -0.441666
vn 0.673762 -0.674896 -0.300932
vn 0.673762 -0.674896 -0.300932
vn 0.673762 -0.674896 -0.300932
vn 0.673762 -0.674896 -0.300932
vn 0.442470 -0.880788 0.168621
vn 0.503065 -0.394118 0.769153
vn 0.302131 -0.675344 0.672776
vn 0.302131 -0.675344 0.672776
vn -0.907100 0.103320 0.408037
vn -0.907100 0.103320 0.408037
vn -0.907101 0.103316 0.408037
vn -0.907101 0.103316 0.408037
vn 0.547592 0.048998 0.835310
vn 0.592541 0.436486 0.677034
vn 0.407618 0.099788 0.907684
vn 0.407618 0.099788 0.907684
vn 0.908148 0.103619 -0.405623
vn 0.908148 0.103619 -0.405623
vn 0.908149 0.103613 -0.405623
vn 0.908149 0.103613 -0.405623
vn -0.404902 0.103008 -0.908539
vn -0.404902 0.103008 -0.908539
vn -0.088570 0.437987 -0.894608
vn -0.278683 0.042879 -0.959425
vn -0.958138 0.043146 0.283039
vn -0.938000 0.047063 -0.343425
vn -0.938298 -0.046193 -0.342730
vn -0.957999 -0.042322 0.283632
vn 0.282537 0.041882 0.958342
vn -0.342553 0.046998 0.938322
vn -0.341130 -0.045315 0.938923
vn 0.283648 -0.041653 0.958023
vn 0.958254 0.042430 -0.282754
vn 0.938238 0.045023 0.343049
vn 0.932787 -0.052933 0.356519
vn 0.965055 -0.049757 -0.257279
vn -0.278683 0.042879 -0.959425
vn 0.345391 0.047478 -0.937257
vn 0.356844 -0.052860 -0.932667
vn -0.255493 -0.049748 -0.965530
vn -0.004500 -0.795688 -0.605691
vn -0.009100 -0.812577 -0.582783
vn -0.004500 -0.795688 -0.605691
vn 0.001600 -0.781277 -0.624182
vn 0.001600 -0.781277 -0.624182
vn 0.003600 -0.749217 -0.662315
vn 0.003600 -0.749217 -0.662315
vn 0.000000 0.997995 0.063300
vn 0.000000 0.997995 0.063300
vn -0.001200 0.999061 0.043298
vn -0.001200 0.999061 0.043298
vn -0.001700 0.999518 0.031001
vn -0.001700 0.999518 0.031001
vn -0.000600 0.998789 0.049199
vn -0.000600 0.998789 0.049199
vn 0.000000 0.885204 0.465202
vn 0.000000 0.885204 0.465202
vn 0.000000 0.595414 0.803419
vn 0.000000 0.595414 0.803419
vn 0.000000 0.301189 0.953565
vn 0.000000 0.301189 0.953565
vn 0.000000 -0.293095 0.956083
vn 0.000000 -0.293095 0.956083
vn 0.000000 -0.560410 0.828215
vn 0.000000 -1.000000 -0.000000
vn 0.000000 -0.560410 0.828215
vn 0.000300 -0.998486 -0.054999
vn 0.000000 -1.000000 -0.000000
vn 0.000300 -0.998486 -0.054999
vn 0.000600 -0.988927 -0.148404
vn 0.000600 -0.988927 -0.148404
vn 0.000300 -0.982380 -0.186896
vn -0.000100 -0.980742 -0.195308
vn 0.000300 -0.982380 -0.186896
vn -0.000100 -0.980742 -0.195308
vn -0.000500 -0.975001 -0.222200
vn -0.000500 -0.975001 -0.222200
vn -0.001200 -0.965012 -0.262203
vn -0.001200 -0.965012 -0.262203
vn -0.001600 -0.966303 -0.257401
vn -0.001600 -0.966303 -0.257401
vn 0.310715 -0.734636 -0.603130
vn 0.310715 -0.734636 -0.603130
vn 0.548103 -0.221301 -0.806604
vn 0.548103 -0.221301 -0.806604
vn 0.591496 0.335498 -0.733195
vn 0.591496 0.335498 -0.733195
vn 0.383000 0.866699 -0.319600
vn 0.383000 0.866699 -0.319600
vn 0.001200 0.966360 0.257189
vn 0.001200 0.966360 0.257189
vn 0.000500 0.964987 0.262297
vn 0.000500 0.964987 0.262297
vn 0.000200 0.975001 0.222200
vn 0.000200 0.975001 0.222200
vn 0.000100 0.980742 0.195308
vn 0.000100 0.980742 0.195308
vn 0.000000 0.982340 0.187108
vn 0.000000 0.982340 0.187108
vn -0.000200 0.982340 0.187108
vn -0.000200 0.982340 0.187108
vn -0.000400 0.995563 0.094097
vn -0.000400 0.995563 0.094097
vn -0.000300 1.000000 0.000000
vn -0.186999 -0.755497 -0.627898
vn -0.173693 -0.685374 -0.707173
vn -0.173693 -0.685374 -0.707173
vn -0.590383 -0.252293 -0.766678
vn -0.590383 -0.252293 -0.766678
vn -0.544284 0.448287 -0.709079
vn -0.544284 0.448287 -0.709079
vn -0.002100 0.999094 0.042500
vn -0.002100 0.999094 0.042500
vn -0.002000 0.999572 0.029199
vn -0.002000 0.999572 0.029199
vn -0.000600 0.999333 0.036501
vn -0.000600 0.999333 0.036501
vn 0.000000 0.998508 0.054600
vn -0.000200 0.847953 0.530071
vn 0.000000 0.998508 0.054600
vn -0.000200 0.847953 0.530071
vn 0.479399 0.877597 0.000100
vn 0.966435 0.256909 0.000000
vn 0.479399 0.877597 0.000100
vn 0.000000 -0.212396 0.977184
vn 0.966435 0.256909 0.000000
vn 0.000000 -0.560479 0.828169
vn 0.000000 -0.212396 0.977184
vn 0.000000 -0.560479 0.828169
vn 0.391081 -0.920356 -0.000000
vn 0.391081 -0.920356 -0.000000
vn 0.261198 -0.962693 -0.070699
vn 0.000300 -0.981725 -0.190305
vn 0.261198 -0.962693 -0.070699
vn 0.000600 -0.983519 -0.180803
vn 0.000300 -0.981725 -0.190305
vn 0.000600 -0.983519 -0.180803
vn 0.000300 -0.983373 -0.181595
vn 0.000300 -0.983373 -0.181595
vn -0.000100 -0.983059 -0.183292
vn -0.000100 -0.983059 -0.183292
vn -0.000400 -0.982457 -0.186492
vn -0.000400 -0.982457 -0.186492
vn 0.212500 -0.854499 -0.473999
vn 0.212500 -0.854499 -0.473999
vn 0.241704 -0.814312 -0.527708
vn 0.241704 -0.814312 -0.527708
vn 0.536292 -0.265496 -0.801188
vn 0.536292 -0.265496 -0.801188
vn 0.592009 0.330805 -0.734911
vn 0.592009 0.330805 -0.734911
vn 0.309291 0.929071 -0.202894
vn 0.356494 0.901685 -0.244696
vn 0.309291 0.929071 -0.202894
vn 0.356494 0.901685 -0.244696
vn 0.389207 0.911916 -0.130102
vn 0.389207 0.911916 -0.130102
vn 0.406587 0.913571 -0.008700
vn 0.406587 0.913571 -0.008700
vn 0.396407 0.914215 0.084101
vn 0.396407 0.914215 0.084101
vn 0.383492 0.916382 0.114798
vn 0.383492 0.916382 0.114798
vn 0.388793 0.917084 0.088298
vn 0.388793 0.917084 0.088298
vn 0.466616 0.883630 0.038301
vn 0.479399 0.877597 0.000100
vn 0.466616 0.883630 0.038301
vn 0.195675 0.856741 -0.477186
vn 0.000000 1.000000 0.000000
vn -0.480525 0.857088 -0.185732
vn -0.894486 0.434771 0.104256
vn -0.894486 0.434771 0.104256
vn -0.958138 0.043146 0.283039
vn -0.957999 -0.042322 0.283632
vn -0.958138 0.043146 0.283039
vn -0.957999 -0.042322 0.283632
vn -0.889555 -0.442320 0.114212
vn -0.889555 -0.442320 0.114212
vn -0.471380 -0.863485 -0.179430
vn 0.169274 -0.881066 -0.441666
vn -0.000000 -1.000000 0.000000
vn 0.169274 -0.881066 -0.441666
vn 0.770125 -0.394455 -0.501311
vn 0.770125 -0.394455 -0.501311
vn 0.834882 -0.049874 -0.548166
vn 0.834882 -0.049874 -0.548166
vn 0.834825 0.051518 -0.548100
vn 0.834825 0.051518 -0.548100
vn 0.698397 0.411040 -0.585908
vn 0.698397 0.411040 -0.585908
vn 0.195675 0.856741 -0.477186
vn -0.000000 1.000000 0.000003
vn 0.000000 1.000000 -0.000000
vn 0.000000 1.000000 0.000000
vn -0.480525 0.857088 -0.185732
vn -0.000000 1.000000 0.000003
vn 0.000000 1.000000 -0.000000
vn 0.298702 0.684343 0.665171
vn 0.298702 0.684343 0.665171
vn -0.197227 0.859781 0.471040
vn 0.088247 0.443504 0.891917
vn 0.407618 0.099788 0.907684
vn 0.407618 0.099788 0.907684
vn 0.088247 0.443504 0.891917
vn 0.282537 0.041882 0.958342
vn 0.283648 -0.041653 0.958023
vn 0.409663 0.000005 0.912237
vn 0.409663 0.000005 0.912237
vn 0.282537 0.041882 0.958342
vn 0.407593 -0.100393 0.907628
vn 0.407593 -0.100393 0.907628
vn 0.283648 -0.041653 0.958023
vn 0.113600 -0.442021 0.889782
vn 0.302131 -0.675345 0.672775
vn 0.302131 -0.675345 0.672775
vn 0.113600 -0.442021 0.889782
vn -0.179646 -0.863117 0.471970
vn -0.000000 -1.000000 0.000000
vn -0.000000 -1.000000 0.000000
vn 0.000000 -1.000000 0.000001
vn 0.000000 -1.000000 0.000001
vn -0.000000 -1.000000 0.000000
vn -0.471380 -0.863485 -0.179430
vn -0.471380 -0.863485 -0.179430
vn -0.591101 -0.429514 -0.682728
vn -0.300202 -0.675377 -0.673606
vn -0.300202 -0.675377 -0.673606
vn -0.591101 -0.429514 -0.682728
vn -0.546866 -0.049889 -0.835733
vn -0.404952 -0.101762 -0.908658
vn -0.404952 -0.101762 -0.908658
vn -0.407068 0.000000 -0.913398
vn -0.407068 0.000000 -0.913398
vn -0.546866 -0.049889 -0.835733
vn -0.546877 0.050765 -0.835672
vn -0.546877 0.050765 -0.835672
vn -0.589083 0.420348 -0.690137
vn -0.404902 0.103009 -0.908539
vn -0.404902 0.103009 -0.908539
vn -0.589083 0.420348 -0.690137
vn -0.480525 0.857088 -0.185732
vn -0.304297 0.664248 -0.682773
vn -0.304297 0.664248 -0.682772
vn -0.197227 0.859781 0.471040
vn 0.000000 1.000000 -0.000003
vn 0.000000 1.000000 -0.000003
vn 0.478164 0.861472 0.170956
vn 0.478164 0.861472 0.170956
vn 0.891441 0.436006 -0.123420
vn 0.891441 0.436006 -0.123420
vn 0.958254 0.042430 -0.282754
vn 0.965055 -0.049757 -0.257279
vn 0.958254 0.042430 -0.282754
vn 0.965055 -0.049757 -0.257279
vn 0.888036 -0.393886 -0.237161
vn 0.888036 -0.393886 -0.237161
vn 0.442470 -0.880788 0.168621
vn 0.442470 -0.880788 0.168621
vn 0.000000 -1.000000 0.000005
vn 0.000000 -1.000000 0.000005
vn -0.179646 -0.863117 0.471970
vn -0.179646 -0.863117 0.471970
vn -0.682801 -0.428371 0.591845
vn -0.682801 -0.428371 0.591845
vn -0.833865 -0.049540 0.549741
vn -0.833865 -0.049540 0.549741
vn -0.833790 0.051260 0.549696
vn -0.833790 0.051260 0.549696
vn -0.698062 0.409523 0.587367
vn -0.698062 0.409523 0.587367
vn -0.197227 0.859781 0.471040
s 1
g stationary_003
usemtl stationary_003_Mat
f 6/1/1 5/2/2 262/334/3 263/335/4
s 2
f 258/330/5 259/331/6 7/7/7 8/8/8
s off
f 13/9/9 10/10/10 11/11/11 12/12/12
f 16/13/13 17/14/14 14/15/15 15/16/16
s 3
f 248/319/17 82/18/18 18/19/19 247/318/20
s 4
f 81/21/21 254/325/22 255/326/23 19/24/24
s 5
f 251/322/25 79/26/26 80/27/27 250/321/28
s off
f 22/29/29 23/30/30 20/31/31 21/32/32
s 6
f 5/2/33 24/33/34 261/333/35 262/334/36
s off
f 17/14/37 26/35/38 25/36/39 14/15/40
s 7
f 83/37/41 253/324/42 254/325/43 81/21/44
s 8
f 24/33/45 27/39/46 260/332/47 261/333/48
s 9
f 27/39/49 7/7/50 259/331/51 260/332/52
s off
f 26/35/53 29/41/54 28/42/55 25/36/56
f 29/41/57 11/11/58 10/10/59 28/42/60
s 10
f 84/43/61 252/323/62 253/324/63 83/37/64
s 11
f 84/43/65 79/26/66 251/322/67 252/323/68
s 12
f 30/45/69 31/46/70 264/336/71 265/337/72
s off
f 33/49/73 22/50/74 21/51/75 32/52/76
s 13
f 248/319/77 249/320/78 85/54/79 82/18/80
s 14
f 31/46/81 6/1/82 263/335/83 264/336/84
s off
f 32/52/85 13/9/86 12/12/87 33/49/88
s 15
f 249/320/89 250/321/90 80/27/91 85/54/92
s off
f 31/46/93 30/45/94 22/50/95 33/49/96
f 8/8/97 7/7/98 17/14/99 16/13/100
f 15/16/101 14/15/102 81/55/103 19/56/104
f 20/31/105 18/57/106 82/58/107 21/32/108
f 24/33/109 5/2/110 11/11/111 29/41/112
f 7/7/113 27/39/114 26/35/115 17/14/116
f 27/39/117 24/33/118 29/41/119 26/35/120
f 5/2/121 6/1/122 12/12/123 11/11/124
f 33/49/125 12/12/126 6/1/127 31/46/128
f 35/59/129 72/60/130 34/61/131 23/30/132
s 16
f 36/62/133 242/312/134 243/313/135 72/65/136
s off
f 40/66/137 37/67/138 38/68/139 39/69/140
f 44/70/141 41/71/142 42/72/143 43/73/144
f 37/67/145 42/72/146 41/71/147 38/68/148
f 46/74/149 38/68/150 41/71/151 45/75/152
s 17
f 49/76/153 47/77/154 240/310/155 241/311/156
s 18
f 51/80/157 50/81/158 238/308/159 239/309/160
s off
f 44/70/161 45/75/162 41/71/163
s 19
f 244/314/164 245/315/165 52/86/166 34/87/167
s 20
f 245/315/168 246/316/169 53/89/170 52/86/171
s 21
f 243/313/172 244/314/173 34/87/174 72/65/175
s off
f 54/90/176 39/69/177 38/68/178 46/74/179
f 30/91/180 35/59/181 23/30/182 22/29/183
f 20/31/184 23/30/185 34/61/186 52/92/187
f 18/57/188 20/31/189 52/92/190 53/93/191
s 22
f 247/318/192 18/19/193 53/94/194 246/317/195
s 23
f 47/77/196 51/80/197 239/309/198 240/310/199
s 24
f 16/13/200 15/16/201 256/328/202 257/329/203
s 25
f 8/8/204 16/13/205 257/329/206 258/330/207
s 26
f 15/16/208 19/56/209 255/327/210 256/328/211
s 27
f 241/311/212 242/312/213 36/62/214 49/76/215
s off
f 39/69/216 55/99/217 56/100/218 40/66/219
f 72/60/220 35/59/221 55/99/222 57/101/223
f 44/70/224 43/73/225 50/81/226 51/80/227
f 45/75/228 44/70/229 51/80/230 47/77/231
f 45/75/232 47/77/233 49/76/234 46/74/235
f 36/62/236 54/90/237 46/74/238 49/76/239
f 58/102/240 59/103/241 60/104/242 61/105/243
f 62/106/244 63/107/245 64/108/246 65/109/247
f 61/105/248 60/104/249 63/107/250 62/106/251
s 28
f 50/81/252 43/73/253 237/307/254 238/308/255
s 29
f 235/305/256 65/109/257 64/108/258 234/304/259
s off
f 30/91/260 66/113/261 58/102/262 67/114/263
f 67/114/264 68/115/265 37/67/266 40/66/267
f 69/116/268 70/117/269 43/73/270 42/72/271
f 68/115/272 69/116/273 42/72/274 37/67/275
f 58/102/276 61/105/277 68/115/278 67/114/279
f 62/106/280 65/109/281 70/117/282 69/116/283
f 61/105/284 62/106/285 69/116/286 68/115/287
f 40/66/288 56/100/289 30/91/290 67/114/291
f 55/99/292 35/59/293 30/91/294 56/100/295
f 54/90/296 57/101/297 55/99/298 39/69/299
s 30
f 70/117/300 65/109/301 235/305/302 236/306/303
s 31
f 43/73/304 70/117/305 236/306/306 237/307/307
s 32
f 265/337/308 266/338/309 72/120/310 30/45/311
s off
f 80/121/312 79/122/313 10/10/314 13/9/315
f 83/123/316 81/55/317 14/15/318 25/36/319
f 84/124/320 83/123/321 25/36/322 28/42/323
f 79/122/324 84/124/325 28/42/326 10/10/327
f 82/125/328 85/126/329 32/52/330 21/51/331
f 85/126/332 80/121/333 13/9/334 32/52/335
s 33
f 3/3/336 295/369/337 296/370/338 163/4/339
s 34
f 292/366/340 164/6/341 9/5/342 291/365/343
s off
f 96/131/344 95/132/345 98/133/346 97/134/347
f 99/135/348 102/136/349 101/137/350 100/138/351
s 35
f 280/353/352 281/354/353 73/17/354 104/20/355
s 36
f 74/23/356 75/22/357 287/360/358 288/361/359
s 37
f 283/356/360 284/357/361 86/25/362 106/28/363
s off
f 107/145/364 110/146/365 109/147/366 108/148/367
s 38
f 165/34/368 294/368/369 295/369/370 3/3/371
s off
f 112/150/372 113/151/373 102/136/374 99/135/375
s 39
f 75/22/376 1/38/377 286/359/378 287/360/379
s 40
f 166/40/380 293/367/381 294/368/382 165/34/383
s 41
f 164/6/384 292/366/385 293/367/386 166/40/387
s off
f 115/154/388 116/155/389 113/151/390 112/150/391
f 95/132/392 96/131/393 116/155/394 115/154/395
s 42
f 1/38/396 117/44/397 285/358/398 286/359/399
s 43
f 86/25/400 284/357/401 285/358/402 117/44/403
s 44
f 88/47/404 297/371/405 298/372/406 87/48/407
s off
f 108/159/408 109/160/409 121/161/410 120/162/411
s 45
f 282/355/412 76/53/413 73/17/414 281/354/415
s 46
f 163/4/416 296/370/417 297/371/418 88/47/419
s off
f 97/134/420 98/133/421 120/162/422 121/161/423
s 47
f 283/356/424 106/28/425 76/53/426 282/355/427
s off
f 109/160/428 118/158/429 119/157/430 121/161/431
f 102/136/432 93/129/433 94/130/434 101/137/435
f 173/164/436 99/135/437 100/138/438 105/165/439
f 174/166/440 103/167/441 107/145/442 108/148/443
f 96/131/444 91/127/445 111/149/446 116/155/447
f 113/151/448 114/153/449 93/129/450 102/136/451
f 116/155/452 111/149/453 114/153/454 113/151/455
f 97/134/456 92/128/457 91/127/458 96/131/459
f 92/128/460 97/134/461 121/161/462 119/157/463
f 122/168/464 162/169/465 123/170/466 110/146/467
s 48
f 77/64/468 78/63/469 275/347/470 276/348/471
s off
f 126/173/472 125/174/473 128/175/474 127/176/475
f 130/177/476 129/178/477 132/179/478 131/180/479
f 129/178/480 130/177/481 125/174/482 126/173/483
f 129/178/484 126/173/485 134/181/486 133/182/487
s 49
f 48/78/488 273/345/489 274/346/490 167/79/491
s 50
f 2/82/492 271/343/493 272/344/494 138/83/495
s off
f 133/182/496 132/179/497 129/178/498
s 51
f 278/350/499 89/85/500 141/84/501 277/349/502
s 52
f 279/351/503 143/88/504 89/85/505 278/350/506
s 53
f 277/349/507 141/84/508 77/64/509 276/348/510
s off
f 126/173/511 127/176/512 144/190/513 134/181/514
f 110/146/515 123/170/516 118/191/517 109/147/518
f 122/168/519 110/146/520 107/145/521 140/192/522
f 140/192/523 107/145/524 103/167/525 142/193/526
s 54
f 279/352/527 280/353/528 104/20/529 143/95/530
s 55
f 138/83/531 272/344/532 273/345/533 48/78/534
s 56
f 4/96/535 289/363/536 290/364/537 90/97/538
s 57
f 90/97/539 290/364/540 291/365/541 9/5/542
s 58
f 74/98/543 288/362/544 289/363/545 4/96/546
s 59
f 275/347/547 78/63/548 167/79/549 274/346/550
s off
f 146/195/551 145/196/552 127/176/553 128/175/554
f 145/196/555 123/170/556 162/169/557 147/197/558
f 137/185/559 131/180/560 132/179/561 139/186/562
f 139/186/563 132/179/564 133/182/565 135/183/566
f 136/184/567 135/183/568 133/182/569 134/181/570
f 134/181/571 144/190/572 124/171/573 136/184/574
f 150/198/575 149/199/576 148/200/577 151/201/578
f 154/202/579 153/203/580 152/204/581 155/205/582
f 153/203/583 150/198/584 151/201/585 152/204/586
s 60
f 168/110/587 270/342/588 271/343/589 2/82/590
s 61
f 267/339/591 268/340/592 156/111/593 169/112/594
s off
f 148/200/595 157/206/596 118/191/597 158/207/598
f 125/174/599 159/208/600 158/207/601 128/175/602
f 131/180/603 161/209/604 160/210/605 130/177/606
f 130/177/607 160/210/608 159/208/609 125/174/610
f 159/208/611 151/201/612 148/200/613 158/207/614
f 161/209/615 155/205/616 152/204/617 160/210/618
f 160/210/619 152/204/620 151/201/621 159/208/622
f 118/191/623 146/195/624 128/175/625 158/207/626
f 118/191/627 123/170/628 145/196/629 146/195/630
f 145/196/631 147/197/632 144/190/633 127/176/634
s 62
f 156/111/635 268/340/636 269/341/637 71/118/638
s 63
f 71/118/639 269/341/640 270/342/641 168/110/642
s 64
f 299/373/643 170/119/644 87/48/645 298/372/646
s off
f 95/132/647 171/212/648 172/213/649 98/133/650
f 99/135/651 173/164/652 175/214/653 112/150/654
f 112/150/655 175/214/656 176/215/657 115/154/658
f 115/154/659 176/215/660 171/212/661 95/132/662
f 120/162/663 177/216/664 174/217/665 108/159/666
f 98/133/667 172/213/668 177/216/669 120/162/670
s 65
f 342/423/671 343/424/672 300/374/673 313/390/674
s 66
f 304/380/675 353/435/676 354/436/677 303/379/678
s 67
f 317/395/679 189/227/680 199/228/681 316/394/682
s 68
f 346/428/683 309/385/684 310/386/685 345/427/686
s 69
f 192/234/687 323/401/688 324/402/689 185/237/690
s 70
f 307/383/691 348/430/692 349/431/693 320/398/694
s off
f 204/242/695 178/226/696 202/243/697 226/244/698
f 227/245/699 207/246/700 179/239/701
f 210/247/702 180/222/703 208/248/704 228/249/705
f 229/250/706 213/251/707 181/238/708
f 216/252/709 182/225/710 214/253/711 230/254/712
f 219/255/713 183/229/714 217/256/715 231/257/716
f 222/258/717 184/233/718 220/259/719 232/260/720
f 225/261/721 185/237/722 223/262/723 233/263/724
s 71
f 352/434/725 353/435/726 304/380/727 305/381/728
s 72
f 322/400/729 323/401/730 192/234/731 211/266/732
s 73
f 308/384/733 309/385/734 346/428/735 347/429/736
s 74
f 207/246/737 189/227/738 317/395/739 318/396/740
s 75
f 355/437/741 340/421/742 301/377/743 302/378/744
s 76
f 221/271/745 198/272/746 314/392/747 315/393/748
s 77
f 311/387/749 300/375/750 343/425/751 344/426/752
s 78
f 325/403/753 312/389/754 200/279/755 223/262/756
s off
f 216/280/757 195/236/758 190/235/759 208/281/760
f 219/282/761 197/224/762 186/223/763 202/283/764
f 222/284/765 199/228/766 189/227/767 206/285/768
f 225/286/769 201/232/770 193/231/771 212/287/772
f 203/264/773 226/288/774 202/283/775 186/223/776
f 187/240/777 204/242/778 226/244/779 203/289/780
f 205/267/781 227/290/782 179/239/783
f 206/291/784 227/290/785 205/267/786 188/230/787
f 189/227/788 207/246/789 227/245/790 206/285/791
f 209/265/792 228/292/793 208/281/794 190/235/795
f 191/241/796 210/247/797 228/249/798 209/293/799
f 211/266/800 229/294/801 181/238/802
f 212/295/803 229/294/804 211/266/805 192/234/806
f 193/231/807 213/251/808 229/250/809 212/287/810
f 194/270/811 215/296/812 230/254/813 214/253/814
f 215/277/815 195/236/816 216/280/817 230/297/818
f 196/273/819 218/298/820 231/257/821 217/256/822
f 218/268/823 197/224/824 219/282/825 231/299/826
f 198/276/827 221/300/828 232/260/829 220/259/830
f 221/271/831 199/228/832 222/284/833 232/301/834
f 200/279/835 224/302/836 233/263/837 223/262/838
f 224/274/839 201/232/840 225/286/841 233/303/842
s 79
f 351/433/843 352/434/844 305/381/845 306/382/846
s 80
f 321/399/847 322/400/848 211/266/849 181/238/850
s 81
f 307/383/851 308/384/852 347/429/853 348/430/854
s 82
f 179/239/855 207/246/856 318/396/857 319/397/858
s 83
f 354/436/859 355/437/860 302/378/861 303/379/862
s 84
f 199/228/863 221/271/864 315/393/865 316/394/866
s 85
f 310/386/867 311/387/868 344/426/869 345/427/870
s 86
f 324/402/871 325/403/872 223/262/873 185/237/874
s off
f 182/225/875 216/252/876 208/248/877 180/222/878
f 183/229/879 219/255/880 202/243/881 178/226/882
f 184/233/883 222/258/884 206/291/885 188/230/886
f 185/237/887 225/261/888 212/295/889 192/234/890
s 29
f 156/111/891 235/305/256 234/304/259 169/112/892
s 30
f 236/306/303 235/305/302 156/111/893 71/118/894
s 31
f 237/307/307 236/306/306 71/118/895 168/110/896
s 28
f 238/308/255 237/307/254 168/110/897 2/82/898
s 18
f 239/309/160 238/308/159 2/82/899 138/83/900
s 23
f 240/310/199 239/309/198 138/83/901 48/78/902
s 17
f 241/311/156 240/310/155 48/78/903 167/79/904
s 27
f 167/79/905 78/63/906 242/312/213 241/311/212
s 16
f 243/313/135 242/312/134 78/63/907 77/64/908
s 21
f 77/64/909 141/84/910 244/314/173 243/313/172
s 19
f 141/84/911 89/85/912 245/315/165 244/314/164
s 20
f 89/85/913 143/88/914 246/316/169 245/315/168
s 22
f 104/20/915 247/318/192 246/317/195 143/95/916
s 3
f 73/17/917 248/319/17 247/318/20 104/20/918
s 13
f 73/17/919 76/53/920 249/320/78 248/319/77
s 15
f 76/53/921 106/28/922 250/321/90 249/320/89
s 5
f 86/25/923 251/322/25 250/321/28 106/28/924
s 11
f 252/323/68 251/322/67 86/25/925 117/44/926
s 10
f 253/324/63 252/323/62 117/44/927 1/38/928
s 7
f 254/325/43 253/324/42 1/38/929 75/22/930
s 4
f 255/326/23 254/325/22 75/22/931 74/23/932
s 26
f 256/328/211 255/327/210 74/98/933 4/96/934
s 24
f 257/329/203 256/328/202 4/96/935 90/97/936
s 25
f 258/330/207 257/329/206 90/97/937 9/5/938
s 2
f 9/5/939 164/6/940 259/331/6 258/330/5
s 9
f 260/332/52 259/331/51 164/6/941 166/40/942
s 8
f 261/333/48 260/332/47 166/40/943 165/34/944
s 6
f 262/334/36 261/333/35 165/34/945 3/3/946
s 1
f 263/335/4 262/334/3 3/3/947 163/4/948
s 14
f 264/336/84 263/335/83 163/4/949 88/47/950
s 12
f 265/337/72 264/336/71 88/47/951 87/48/952
s 32
f 87/48/953 170/119/954 266/338/309 265/337/308
s 61
f 154/202/955 155/205/956 268/340/592 267/339/591
s 62
f 269/341/637 268/340/636 155/205/957 161/209/958
s 63
f 270/342/641 269/341/640 161/209/959 131/180/960
s 60
f 271/343/589 270/342/588 131/180/961 137/185/962
s 50
f 272/344/494 271/343/493 137/185/963 139/186/964
s 55
f 273/345/533 272/344/532 139/186/965 135/183/966
s 49
f 274/346/490 273/345/489 135/183/967 136/184/968
s 59
f 124/171/969 275/347/547 274/346/550 136/184/970
s 48
f 276/348/471 275/347/470 124/171/971 162/172/972
s 53
f 122/188/973 277/349/507 276/348/510 162/172/974
s 51
f 140/187/975 278/350/499 277/349/502 122/188/976
s 52
f 142/189/977 279/351/503 278/350/506 140/187/978
s 54
f 142/194/979 103/139/980 280/353/528 279/352/527
s 35
f 103/139/981 174/140/982 281/354/353 280/353/352
s 45
f 177/163/983 282/355/412 281/354/415 174/140/984
s 47
f 172/143/985 283/356/424 282/355/427 177/163/986
s 37
f 172/143/987 171/144/988 284/357/361 283/356/360
s 43
f 285/358/402 284/357/401 171/144/989 176/156/990
s 42
f 286/359/399 285/358/398 176/156/991 175/152/992
s 39
f 287/360/379 286/359/378 175/152/993 173/141/994
s 36
f 288/361/359 287/360/358 173/141/995 105/142/996
s 58
f 289/363/545 288/362/544 105/165/997 100/138/998
s 56
f 290/364/537 289/363/536 100/138/999 101/137/1000
s 57
f 291/365/541 290/364/540 101/137/1001 94/130/1002
s 34
f 93/129/1003 292/366/340 291/365/343 94/130/1004
s 41
f 293/367/386 292/366/385 93/129/1005 114/153/1006
s 40
f 294/368/382 293/367/381 114/153/1007 111/149/1008
s 38
f 295/369/370 294/368/369 111/149/1009 91/127/1010
s 33
f 296/370/338 295/369/337 91/127/1011 92/128/1012
s 46
f 297/371/418 296/370/417 92/128/1013 119/157/1014
s 44
f 298/372/406 297/371/405 119/157/1015 118/158/1016
s 64
f 162/211/1017 299/373/643 298/372/646 118/158/1018
s 65
f 313/390/674 300/374/673 200/220/1019 312/388/1020
s 75
f 302/378/744 301/377/743 194/270/1021 214/253/1022
s 83
f 303/379/862 302/378/861 214/253/1023 182/225/1024
s 66
f 180/222/1025 304/380/675 303/379/678 182/225/1026
s 71
f 305/381/728 304/380/727 180/222/1027 210/247/1028
s 79
f 306/382/846 305/381/845 210/247/1029 191/241/1030
s 70
f 181/238/1031 307/383/691 320/398/694 321/399/1032
s 81
f 181/238/1033 213/251/1034 308/384/852 307/383/851
s 73
f 213/251/1035 193/231/1036 309/385/734 308/384/733
s 68
f 310/386/685 309/385/684 193/231/1037 201/232/1038
s 85
f 201/232/1039 224/274/1040 311/387/868 310/386/867
s 77
f 224/274/1041 200/275/1042 300/375/750 311/387/749
s 65
f 301/376/1043 327/406/1044 328/407/1045 194/221/1046
f 340/420/1047 341/422/1048 327/406/1044 301/376/1043
s 76
f 339/419/1049 326/405/1050 196/273/1051 217/256/1052
s 84
f 338/418/1053 339/419/1054 217/256/1055 183/229/1056
s 67
f 178/226/1057 337/417/1058 338/418/1059 183/229/1060
s 74
f 336/416/1061 337/417/1062 178/226/1063 204/242/1064
s 82
f 335/415/1065 336/416/1066 204/242/1067 187/240/1068
s 70
f 334/414/1069 350/432/1070 351/433/1071 306/382/1072
f 333/413/1073 334/414/1069 306/382/1072 191/241/1074
s 80
f 191/241/1075 209/265/1076 332/412/1077 333/413/1078
s 72
f 209/265/1079 190/235/1080 331/411/1081 332/412/1082
s 69
f 330/410/1083 331/411/1084 190/235/1085 195/236/1086
s 86
f 195/236/1087 215/277/1088 329/409/1089 330/410/1090
s 78
f 215/277/1091 194/278/1092 328/408/1093 329/409/1094
s 65
f 341/422/1048 342/423/671 313/390/674 327/406/1044
f 328/407/1045 327/406/1044 313/390/674 312/388/1020
s 78
f 329/409/1094 328/408/1093 312/389/754 325/403/753
s 86
f 330/410/1090 329/409/1089 325/403/872 324/402/871
s 69
f 324/402/689 323/401/688 331/411/1084 330/410/1083
s 72
f 332/412/1082 331/411/1081 323/401/730 322/400/729
s 80
f 333/413/1078 332/412/1077 322/400/848 321/399/847
s 70
f 321/399/1032 320/398/694 334/414/1069 333/413/1073
f 320/398/694 349/431/693 350/432/1070 334/414/1069
s 82
f 319/397/858 318/396/857 336/416/1066 335/415/1065
s 74
f 318/396/740 317/395/739 337/417/1062 336/416/1061
s 67
f 338/418/1059 337/417/1058 317/395/679 316/394/682
s 84
f 316/394/866 315/393/865 339/419/1054 338/418/1053
s 76
f 315/393/748 314/392/747 326/405/1050 339/419/1049
s 65
f 196/218/1095 326/404/1096 341/422/1048 340/420/1047
f 326/404/1096 314/391/1097 342/423/671 341/422/1048
f 314/391/1097 198/219/1098 343/424/672 342/423/671
s 77
f 344/426/752 343/425/751 198/276/1099 220/259/1100
s 85
f 345/427/870 344/426/869 220/259/1101 184/233/1102
s 68
f 188/230/1103 346/428/683 345/427/686 184/233/1104
s 73
f 347/429/736 346/428/735 188/230/1105 205/267/1106
s 81
f 348/430/854 347/429/853 205/267/1107 179/239/1108
s 70
f 349/431/693 348/430/692 179/239/1109 319/397/1110
f 350/432/1070 349/431/693 319/397/1110 335/415/1111
f 351/433/1071 350/432/1070 335/415/1111 187/240/1112
s 79
f 187/240/1113 203/264/1114 352/434/844 351/433/843
s 71
f 203/264/1115 186/223/1116 353/435/726 352/434/725
s 66
f 354/436/677 353/435/676 186/223/1117 197/224/1118
s 83
f 197/224/1119 218/268/1120 355/437/860 354/436/859
s 75
f 218/268/1121 196/269/1122 340/421/742 355/437/741
