# This file uses centimeters as units for non-parametric coordinates.

mtllib magazine_closed.mtl
adobe_mdllib magazine_closed.mdl
g default
v -10.442124 0.829049 13.792531
v 10.527876 0.829049 13.792531
v -10.477811 0.858505 -13.807469
v 10.527876 0.829049 -13.807469
v -10.442124 1.629049 13.792531
v 10.527876 1.629049 13.792531
v -10.442124 1.629049 -13.807469
v 10.527876 1.629049 -13.807469
v -10.487570 0.909049 13.792531
v 10.512430 0.909049 13.792531
v 10.512430 0.909049 -13.807469
v -10.487570 0.909049 -13.807469
v -10.502815 0.989049 13.792531
v 10.497185 0.989049 13.792531
v 10.497185 0.989049 -13.807469
v -10.502815 0.989049 -13.807469
v -10.517664 1.069049 13.792531
v 10.482336 1.069049 13.792531
v 10.482336 1.069049 -13.807469
v -10.517664 1.069049 -13.807469
v -10.528034 1.149049 13.792531
v 10.471966 1.149049 13.792531
v 10.471966 1.149049 -13.807469
v -10.528034 1.149049 -13.807469
v -10.529843 1.229049 13.792531
v 10.470157 1.229049 13.792531
v 10.470157 1.229049 -13.807469
v -10.529843 1.229049 -13.807469
v -10.528034 1.309049 13.792531
v 10.471966 1.309049 13.792531
v 10.471966 1.309049 -13.807469
v -10.528034 1.309049 -13.807469
v -10.517664 1.389049 13.792531
v 10.482336 1.389049 13.792531
v 10.482336 1.389049 -13.807469
v -10.517664 1.389049 -13.807469
v -10.502815 1.469049 13.792531
v 10.497185 1.469049 13.792531
v 10.497185 1.469049 -13.807469
v -10.502815 1.469049 -13.807469
v -10.487570 1.549049 13.792531
v 10.512430 1.549049 13.792531
v 10.512430 1.549049 -13.807469
v -10.487570 1.549049 -13.807469
v -10.477811 0.858505 13.792531
v -10.442124 0.829049 -13.807469
v -10.477811 1.599593 13.792531
v -10.477811 1.599593 -13.807469
v -10.458897 1.549049 13.792531
v -10.470860 1.469049 13.792531
v -10.485213 1.389049 13.792531
v -10.495958 1.309049 13.792531
v -10.495958 1.229049 13.792531
v -10.495958 1.149049 13.792531
v -10.485213 1.069049 13.792531
v -10.470860 0.989049 13.792531
v -10.458897 0.909049 13.792531
v -10.458899 1.549049 -13.807469
v -10.470859 1.469049 -13.807469
v -10.485213 1.389049 -13.807469
v -10.495956 1.309049 -13.807469
v -10.495957 1.229049 -13.807469
v -10.495956 1.149049 -13.807469
v -10.485213 1.069049 -13.807469
v -10.470859 0.989049 -13.807469
v -10.458899 0.909049 -13.807469
vt 0.490538 0.019531
vt 0.490538 0.639455
vt 0.019531 0.639455
vt 0.019531 0.019531
vt 0.509462 0.019531
vt 0.980469 0.019531
vt 0.980469 0.639455
vt 0.509462 0.639455
vt 0.501478 0.667309
vt 0.972485 0.667309
vt 0.972139 0.669106
vt 0.501101 0.669106
vt 0.971796 0.670903
vt 0.500834 0.670903
vt 0.971463 0.672700
vt 0.500510 0.672700
vt 0.971230 0.674497
vt 0.500270 0.674497
vt 0.971189 0.676294
vt 0.500270 0.676294
vt 0.971230 0.678091
vt 0.500270 0.678091
vt 0.971463 0.679887
vt 0.500510 0.679887
vt 0.971796 0.681684
vt 0.500834 0.681684
vt 0.972139 0.683481
vt 0.501101 0.683481
vt 0.972485 0.685278
vt 0.501478 0.685278
vt 0.019549 0.643988
vt 0.639472 0.644584
vt 0.639470 0.646414
vt 0.019547 0.645818
vt 0.639468 0.648243
vt 0.019545 0.647647
vt 0.639467 0.650071
vt 0.019544 0.649475
vt 0.639465 0.651883
vt 0.019542 0.651287
vt 0.639463 0.653680
vt 0.019540 0.653084
vt 0.639461 0.655477
vt 0.019538 0.654881
vt 0.639460 0.657289
vt 0.019537 0.656693
vt 0.639458 0.659117
vt 0.019535 0.658521
vt 0.639456 0.660946
vt 0.019533 0.660350
vt 0.639454 0.662776
vt 0.019531 0.662180
vt 0.020685 0.684028
vt 0.020469 0.682892
vt 0.021112 0.682893
vt 0.021486 0.684691
vt 0.020129 0.681095
vt 0.020847 0.681096
vt 0.019799 0.679297
vt 0.020527 0.679298
vt 0.019569 0.677500
vt 0.020290 0.677501
vt 0.019531 0.675703
vt 0.020293 0.675704
vt 0.019575 0.673906
vt 0.020296 0.673907
vt 0.019811 0.672110
vt 0.020539 0.672111
vt 0.020147 0.670313
vt 0.020866 0.670314
vt 0.020494 0.668517
vt 0.021136 0.668518
vt 0.020713 0.667382
vt 0.021516 0.666722
vt 0.491578 0.639455
vt 0.491578 0.019531
vt 0.492734 0.019531
vt 0.492734 0.639455
vt 0.494563 0.019531
vt 0.494563 0.639455
vt 0.496391 0.019531
vt 0.496391 0.639455
vt 0.498203 0.019531
vt 0.498203 0.639455
vt 0.500000 0.019531
vt 0.500000 0.639455
vt 0.501797 0.019531
vt 0.501797 0.639455
vt 0.503609 0.019531
vt 0.503609 0.639455
vt 0.505437 0.019531
vt 0.505437 0.639455
vt 0.507266 0.019531
vt 0.507266 0.639455
vt 0.508422 0.019531
vt 0.508422 0.639455
vt 0.500677 0.684616
vt 0.500459 0.683481
vt 0.500115 0.681684
vt 0.499783 0.679887
vt 0.499549 0.678091
vt 0.499509 0.676294
vt 0.499549 0.674497
vt 0.499783 0.672700
vt 0.500115 0.670903
vt 0.500459 0.669106
vt 0.500677 0.667971
vt 0.492174 0.669316
vt 0.492523 0.667520
vt 0.491827 0.671112
vt 0.491492 0.672908
vt 0.491255 0.674705
vt 0.491211 0.676502
vt 0.491249 0.678299
vt 0.491479 0.680096
vt 0.491809 0.681893
vt 0.492149 0.683691
vt 0.492492 0.685488
vn 0.000000 -1.000000 0.000000
vn 0.000000 -1.000000 0.000000
vn 0.000000 -1.000000 0.000000
vn 0.000000 -1.000000 0.000000
vn 0.000000 1.000000 0.000000
vn 0.000000 1.000000 0.000000
vn 0.000000 1.000000 0.000000
vn 0.000000 1.000000 0.000000
vn 0.000000 0.000000 1.000000
vn 0.000000 0.000000 1.000000
vn 0.000000 0.000000 1.000000
vn 0.000000 0.000000 1.000000
vn 0.000000 0.000000 1.000000
vn 0.000000 0.000000 1.000000
vn 0.000000 0.000000 1.000000
vn 0.000000 0.000000 1.000000
vn 0.000000 0.000000 1.000000
vn 0.000000 0.000000 1.000000
vn 0.000000 0.000000 1.000000
vn 0.000000 0.000000 1.000000
vn 0.000000 0.000000 1.000000
vn 0.000000 0.000000 1.000000
vn 0.000000 0.000000 1.000000
vn 0.000000 0.000000 1.000000
vn 0.000000 0.000000 1.000000
vn 0.000000 0.000000 1.000000
vn 0.000000 0.000000 1.000000
vn 0.000000 0.000000 1.000000
vn 0.000000 0.000000 1.000000
vn 0.000000 0.000000 1.000000
vn 0.000000 0.000000 1.000000
vn 0.000000 0.000000 1.000000
vn 0.000000 0.000000 1.000000
vn 0.000000 0.000000 1.000000
vn 0.000000 0.000000 1.000000
vn 0.000000 0.000000 1.000000
vn 0.000000 0.000000 1.000000
vn 0.000000 0.000000 1.000000
vn 0.000000 0.000000 1.000000
vn 0.000000 0.000000 1.000000
vn 0.000000 0.000000 1.000000
vn 0.000000 0.000000 1.000000
vn 0.000000 0.000000 1.000000
vn 0.000000 0.000000 1.000000
vn 0.000000 0.000000 1.000000
vn 0.000000 0.000000 1.000000
vn 0.000000 0.000000 1.000000
vn 0.000000 0.000000 1.000000
vn 0.981867 0.189570 0.000000
vn 0.981867 0.189570 0.000000
vn 0.982095 0.188385 0.000000
vn 0.982095 0.188385 0.000000
vn 0.982095 0.188385 0.000000
vn 0.982095 0.188385 0.000000
vn 0.982768 0.184846 0.000000
vn 0.982768 0.184846 0.000000
vn 0.982768 0.184846 0.000000
vn 0.982768 0.184846 0.000000
vn 0.987823 0.155580 0.000000
vn 0.987823 0.155580 0.000000
vn 0.987823 0.155580 0.000000
vn 0.987823 0.155580 0.000000
vn 0.997132 0.075687 0.000000
vn 0.997132 0.075687 0.000000
vn 0.997132 0.075687 0.000000
vn 0.997132 0.075687 0.000000
vn 1.000000 0.000000 0.000000
vn 1.000000 0.000000 0.000000
vn 1.000000 0.000000 0.000000
vn 1.000000 0.000000 0.000000
vn 0.997132 -0.075687 0.000000
vn 0.997132 -0.075687 0.000000
vn 0.997132 -0.075687 0.000000
vn 0.997132 -0.075687 0.000000
vn 0.987823 -0.155580 0.000000
vn 0.987823 -0.155580 0.000000
vn 0.987823 -0.155580 0.000000
vn 0.987823 -0.155580 0.000000
vn 0.982768 -0.184846 0.000000
vn 0.982768 -0.184846 0.000000
vn 0.982768 -0.184846 0.000000
vn 0.982768 -0.184846 0.000000
vn 0.982095 -0.188385 0.000000
vn 0.982095 -0.188385 0.000000
vn 0.982095 -0.188385 0.000000
vn 0.982095 -0.188385 0.000000
vn 0.981867 -0.189570 0.000000
vn 0.981867 -0.189570 0.000000
vn 0.000000 0.000000 -1.000000
vn 0.000000 0.000000 -1.000000
vn 0.000000 0.000000 -1.000000
vn 0.000000 0.000000 -1.000000
vn 0.000000 0.000000 -1.000000
vn 0.000000 0.000000 -1.000000
vn 0.000000 0.000000 -1.000000
vn 0.000000 0.000000 -1.000000
vn 0.000000 0.000000 -1.000000
vn 0.000000 0.000000 -1.000000
vn 0.000000 0.000000 -1.000000
vn 0.000000 0.000000 -1.000000
vn 0.000000 0.000000 -1.000000
vn 0.000000 0.000000 -1.000000
vn 0.000000 0.000000 -1.000000
vn 0.000000 0.000000 -1.000000
vn 0.000000 0.000000 -1.000000
vn 0.000000 0.000000 -1.000000
vn 0.000000 0.000000 -1.000000
vn 0.000000 0.000000 -1.000000
vn 0.000000 0.000000 -1.000000
vn 0.000000 0.000000 -1.000000
vn 0.000000 0.000000 -1.000000
vn 0.000000 0.000000 -1.000000
vn 0.000000 0.000000 -1.000000
vn 0.000000 0.000000 -1.000000
vn 0.000000 0.000000 -1.000000
vn 0.000000 0.000000 -1.000000
vn 0.000000 0.000000 -1.000000
vn 0.000000 0.000000 -1.000000
vn 0.000000 0.000000 -1.000000
vn 0.000000 0.000000 -1.000000
vn 0.000000 0.000000 -1.000000
vn 0.000000 0.000000 -1.000000
vn 0.000000 0.000000 -1.000000
vn 0.000000 0.000000 -1.000000
vn 0.000000 0.000000 -1.000000
vn 0.000000 0.000000 -1.000000
vn 0.000000 0.000000 -1.000000
vn 0.000000 0.000000 -1.000000
vn -0.981866 -0.189577 0.000000
vn -0.981866 -0.189577 0.000000
vn -0.982095 -0.188388 0.000000
vn -0.982095 -0.188388 0.000000
vn -0.982095 -0.188388 0.000000
vn -0.982095 -0.188388 0.000000
vn -0.982768 -0.184846 0.000000
vn -0.982768 -0.184846 0.000000
vn -0.982768 -0.184846 0.000000
vn -0.982768 -0.184846 0.000000
vn -0.987823 -0.155580 0.000000
vn -0.987823 -0.155580 0.000000
vn -0.987823 -0.155580 0.000000
vn -0.987823 -0.155580 0.000000
vn -0.997132 -0.075687 0.000000
vn -0.997132 -0.075687 0.000000
vn -0.997132 -0.075687 0.000000
vn -0.997132 -0.075687 0.000000
vn -1.000000 0.000000 0.000000
vn -1.000000 0.000000 0.000000
vn -1.000000 0.000000 0.000000
vn -1.000000 0.000000 0.000000
vn -0.997132 0.075687 0.000000
vn -0.997132 0.075687 0.000000
vn -0.997132 0.075687 0.000000
vn -0.997132 0.075687 0.000000
vn -0.987823 0.155580 0.000000
vn -0.987823 0.155580 0.000000
vn -0.987823 0.155580 0.000000
vn -0.987823 0.155580 0.000000
vn -0.982768 0.184846 0.000000
vn -0.982768 0.184846 0.000000
vn -0.982768 0.184846 0.000000
vn -0.982768 0.184846 0.000000
vn -0.982095 0.188388 0.000000
vn -0.982095 0.188388 0.000000
vn -0.982095 0.188388 0.000000
vn -0.982095 0.188388 0.000000
vn -0.981866 0.189577 0.000000
vn -0.981866 0.189577 0.000000
vn -0.636571 -0.771218 0.000000
vn -0.636571 -0.771218 0.000000
vn -0.636571 -0.771218 0.000000
vn -0.636571 -0.771218 0.000000
vn -0.636571 0.771218 0.000000
vn -0.636571 0.771218 0.000000
vn -0.636571 0.771218 0.000000
vn -0.636571 0.771218 0.000000
vn 0.000000 0.000000 1.000000
vn 0.000000 0.000000 1.000000
vn 0.000000 0.000000 1.000000
vn 0.000000 0.000000 1.000000
vn 0.000000 0.000000 1.000000
vn 0.000000 0.000000 1.000000
vn 0.000000 0.000000 1.000000
vn 0.000000 0.000000 1.000000
vn 0.000000 0.000000 1.000000
vn 0.000000 0.000000 1.000000
vn 0.000000 0.000000 1.000000
vn 0.000000 0.000000 1.000000
vn 0.000000 0.000000 1.000000
vn 0.000000 0.000000 1.000000
vn 0.000000 0.000000 1.000000
vn 0.000000 0.000000 1.000000
vn 0.000000 0.000000 1.000000
vn 0.000000 0.000000 1.000000
vn 0.000000 0.000000 1.000000
vn 0.000000 0.000000 1.000000
vn 0.000000 0.000000 1.000000
vn 0.000000 0.000000 1.000000
vn 0.000000 0.000000 1.000000
vn 0.000000 0.000000 1.000000
vn 0.000000 0.000000 1.000000
vn 0.000000 0.000000 1.000000
vn 0.000000 0.000000 1.000000
vn 0.000000 0.000000 1.000000
vn 0.000000 0.000000 1.000000
vn 0.000000 0.000000 1.000000
vn 0.000000 0.000000 1.000000
vn 0.000000 0.000000 1.000000
vn 0.000000 0.000000 1.000000
vn 0.000000 0.000000 1.000000
vn 0.000000 0.000000 1.000000
vn 0.000000 0.000000 1.000000
vn 0.000000 0.000000 1.000000
vn 0.000000 0.000000 1.000000
vn 0.000000 0.000000 1.000000
vn 0.000000 0.000000 1.000000
vn 0.000000 0.000000 -1.000000
vn 0.000000 0.000000 -1.000000
vn 0.000000 0.000000 -1.000000
vn 0.000000 0.000000 -1.000000
vn 0.000000 0.000000 -1.000000
vn 0.000000 0.000000 -1.000000
vn 0.000000 0.000000 -1.000000
vn 0.000000 0.000000 -1.000000
vn 0.000000 0.000000 -1.000000
vn 0.000000 0.000000 -1.000000
vn 0.000000 0.000000 -1.000000
vn 0.000000 0.000000 -1.000000
vn 0.000000 0.000000 -1.000000
vn 0.000000 0.000000 -1.000000
vn 0.000000 0.000000 -1.000000
vn 0.000000 0.000000 -1.000000
vn 0.000000 0.000000 -1.000000
vn 0.000000 0.000000 -1.000000
vn 0.000000 0.000000 -1.000000
vn 0.000000 0.000000 -1.000000
vn 0.000000 0.000000 -1.000000
vn 0.000000 0.000000 -1.000000
vn 0.000000 0.000000 -1.000000
vn 0.000000 0.000000 -1.000000
vn 0.000000 0.000000 -1.000000
vn 0.000000 0.000000 -1.000000
vn 0.000000 0.000000 -1.000000
vn 0.000000 0.000000 -1.000000
vn 0.000000 0.000000 -1.000000
vn 0.000000 0.000000 -1.000000
vn 0.000000 0.000000 -1.000000
vn 0.000000 0.000000 -1.000000
vn 0.000000 0.000000 -1.000000
vn 0.000000 0.000000 -1.000000
vn 0.000000 0.000000 -1.000000
vn 0.000000 0.000000 -1.000000
vn 0.000000 0.000000 -1.000000
vn 0.000000 0.000000 -1.000000
vn 0.000000 0.000000 -1.000000
vn 0.000000 0.000000 -1.000000
s off
g magazine_closed_002
usemtl magazine_closed_Mat
f 1/1/1 46/2/2 4/3/3 2/4/4
f 5/5/5 6/6/6 8/7/7 7/8/8
f 1/9/9 2/10/10 10/11/11 57/12/12
f 10/11/13 14/13/14 56/14/15 57/12/16
f 14/13/17 18/15/18 55/16/19 56/14/20
f 18/15/21 22/17/22 54/18/23 55/16/24
f 22/17/25 26/19/26 53/20/27 54/18/28
f 26/19/29 30/21/30 52/22/31 53/20/32
f 30/21/33 34/23/34 51/24/35 52/22/36
f 34/23/37 38/25/38 50/26/39 51/24/40
f 38/25/41 42/27/42 49/28/43 50/26/44
f 42/27/45 6/29/46 5/30/47 49/28/48
f 2/31/49 4/32/50 11/33/51 10/34/52
f 10/34/53 11/33/54 15/35/55 14/36/56
f 14/36/57 15/35/58 19/37/59 18/38/60
f 18/38/61 19/37/62 23/39/63 22/40/64
f 22/40/65 23/39/66 27/41/67 26/42/68
f 26/42/69 27/41/70 31/43/71 30/44/72
f 30/44/73 31/43/74 35/45/75 34/46/76
f 34/46/77 35/45/78 39/47/79 38/48/80
f 38/48/81 39/47/82 43/49/83 42/50/84
f 42/50/85 43/49/86 8/51/87 6/52/88
f 3/53/89 12/54/90 66/55/91 46/56/92
f 12/54/93 16/57/94 65/58/95 66/55/96
f 16/57/97 20/59/98 64/60/99 65/58/100
f 20/59/101 24/61/102 63/62/103 64/60/104
f 24/61/105 28/63/106 62/64/107 63/62/108
f 62/64/109 28/63/110 32/65/111 61/66/112
f 61/66/113 32/65/114 36/67/115 60/68/116
f 60/68/117 36/67/118 40/69/119 59/70/120
f 59/70/121 40/69/122 44/71/123 58/72/124
f 44/71/125 48/73/126 7/74/127 58/72/128
f 3/75/129 45/76/130 9/77/131 12/78/132
f 12/78/133 9/77/134 13/79/135 16/80/136
f 16/80/137 13/79/138 17/81/139 20/82/140
f 20/82/141 17/81/142 21/83/143 24/84/144
f 24/84/145 21/83/146 25/85/147 28/86/148
f 28/86/149 25/85/150 29/87/151 32/88/152
f 32/88/153 29/87/154 33/89/155 36/90/156
f 36/90/157 33/89/158 37/91/159 40/92/160
f 40/92/161 37/91/162 41/93/163 44/94/164
f 44/94/165 41/93/166 47/95/167 48/96/168
f 1/1/169 45/76/170 3/75/171 46/2/172
f 7/8/173 48/96/174 47/95/175 5/5/176
f 47/97/177 41/98/178 49/28/179 5/30/180
f 41/98/181 37/99/182 50/26/183 49/28/184
f 37/99/185 33/100/186 51/24/187 50/26/188
f 33/100/189 29/101/190 52/22/191 51/24/192
f 29/101/193 25/102/194 53/20/195 52/22/196
f 53/20/197 25/102/198 21/103/199 54/18/200
f 54/18/201 21/103/202 17/104/203 55/16/204
f 55/16/205 17/104/206 13/105/207 56/14/208
f 56/14/209 13/105/210 9/106/211 57/12/212
f 1/9/213 57/12/214 9/106/215 45/107/216
f 43/108/217 58/72/218 7/74/219 8/109/220
f 43/108/221 39/110/222 59/70/223 58/72/224
f 39/110/225 35/111/226 60/68/227 59/70/228
f 35/111/229 31/112/230 61/66/231 60/68/232
f 31/112/233 27/113/234 62/64/235 61/66/236
f 27/113/237 23/114/238 63/62/239 62/64/240
f 23/114/241 19/115/242 64/60/243 63/62/244
f 19/115/245 15/116/246 65/58/247 64/60/248
f 15/116/249 11/117/250 66/55/251 65/58/252
f 11/117/253 4/118/254 46/56/255 66/55/256
g default
v -6.513664 0.000000 16.032143
v 13.741800 0.000000 10.604708
v -13.691541 0.029456 -10.618174
v 6.598394 0.000000 -16.054846
v -6.513664 0.800000 16.032143
v 13.741800 0.800000 10.604708
v -13.657070 0.800000 -10.627411
v 6.598394 0.800000 -16.054846
v -6.557562 0.080000 16.043905
v 13.726880 0.080000 10.608706
v 6.583474 0.080000 -16.050848
v -13.700968 0.080000 -10.615648
v -6.572287 0.160000 16.047852
v 13.712153 0.160000 10.612650
v 6.568749 0.160000 -16.046902
v -13.715693 0.160000 -10.611702
v -6.586630 0.240000 16.051695
v 13.697812 0.240000 10.616493
v 6.554406 0.240000 -16.043060
v -13.730036 0.240000 -10.607861
v -6.596647 0.320000 16.054379
v 13.687795 0.320000 10.619179
v 6.544389 0.320000 -16.040375
v -13.740053 0.320000 -10.605175
v -6.598394 0.400000 16.054846
v 13.686048 0.400000 10.619646
v 6.542642 0.400000 -16.039907
v -13.741800 0.400000 -10.604708
v -6.596647 0.480000 16.054379
v 13.687795 0.480000 10.619179
v 6.544389 0.480000 -16.040375
v -13.740053 0.480000 -10.605175
v -6.586630 0.560000 16.051695
v 13.697812 0.560000 10.616493
v 6.554406 0.560000 -16.043060
v -13.730036 0.560000 -10.607861
v -6.572287 0.640000 16.047852
v 13.712153 0.640000 10.612650
v 6.568749 0.640000 -16.046902
v -13.715693 0.640000 -10.611702
v -6.557562 0.720000 16.043905
v 13.726880 0.720000 10.608706
v 6.583474 0.720000 -16.050848
v -13.700968 0.720000 -10.615648
v -6.548135 0.029456 16.041380
v -13.657070 0.000000 -10.627411
v -6.548135 0.770544 16.041380
v -13.691541 0.770544 -10.618174
v -6.529866 0.720000 16.036484
v -6.541421 0.640000 16.039581
v -6.555285 0.560000 16.043295
v -6.565664 0.480000 16.046076
v -6.565664 0.400000 16.046076
v -6.565664 0.320000 16.046076
v -6.555285 0.240000 16.043295
v -6.541421 0.160000 16.039581
v -6.529866 0.080000 16.036484
v -13.673273 0.720000 -10.623070
v -13.684825 0.640000 -10.619974
v -13.698691 0.560000 -10.616259
v -13.709068 0.480000 -10.613478
v -13.709069 0.400000 -10.613478
v -13.709068 0.320000 -10.613478
v -13.698691 0.240000 -10.616259
v -13.684825 0.160000 -10.619974
v -13.673273 0.080000 -10.623070
vt 0.490538 0.019531
vt 0.490538 0.639455
vt 0.019531 0.639455
vt 0.019531 0.019531
vt 0.509462 0.019531
vt 0.980469 0.019531
vt 0.980469 0.639455
vt 0.509462 0.639455
vt 0.501478 0.667309
vt 0.972485 0.667309
vt 0.972139 0.669106
vt 0.501101 0.669106
vt 0.971796 0.670903
vt 0.500834 0.670903
vt 0.971463 0.672700
vt 0.500510 0.672700
vt 0.971230 0.674497
vt 0.500270 0.674497
vt 0.971189 0.676294
vt 0.500270 0.676294
vt 0.971230 0.678091
vt 0.500270 0.678091
vt 0.971463 0.679887
vt 0.500510 0.679887
vt 0.971796 0.681684
vt 0.500834 0.681684
vt 0.972139 0.683481
vt 0.501101 0.683481
vt 0.972485 0.685278
vt 0.501478 0.685278
vt 0.019549 0.643988
vt 0.639472 0.644584
vt 0.639470 0.646414
vt 0.019547 0.645818
vt 0.639468 0.648243
vt 0.019545 0.647647
vt 0.639467 0.650071
vt 0.019544 0.649475
vt 0.639465 0.651883
vt 0.019542 0.651287
vt 0.639463 0.653680
vt 0.019540 0.653084
vt 0.639461 0.655477
vt 0.019538 0.654881
vt 0.639460 0.657289
vt 0.019537 0.656693
vt 0.639458 0.659117
vt 0.019535 0.658521
vt 0.639456 0.660946
vt 0.019533 0.660350
vt 0.639454 0.662776
vt 0.019531 0.662180
vt 0.020685 0.684028
vt 0.020469 0.682892
vt 0.021112 0.682893
vt 0.021486 0.684691
vt 0.020129 0.681095
vt 0.020847 0.681096
vt 0.019799 0.679297
vt 0.020527 0.679298
vt 0.019569 0.677500
vt 0.020290 0.677501
vt 0.019531 0.675703
vt 0.020293 0.675704
vt 0.019575 0.673906
vt 0.020296 0.673907
vt 0.019811 0.672110
vt 0.020539 0.672111
vt 0.020147 0.670313
vt 0.020866 0.670314
vt 0.020494 0.668517
vt 0.021136 0.668518
vt 0.020713 0.667382
vt 0.021516 0.666722
vt 0.491578 0.639455
vt 0.491578 0.019531
vt 0.492734 0.019531
vt 0.492734 0.639455
vt 0.494563 0.019531
vt 0.494563 0.639455
vt 0.496391 0.019531
vt 0.496391 0.639455
vt 0.498203 0.019531
vt 0.498203 0.639455
vt 0.500000 0.019531
vt 0.500000 0.639455
vt 0.501797 0.019531
vt 0.501797 0.639455
vt 0.503609 0.019531
vt 0.503609 0.639455
vt 0.505437 0.019531
vt 0.505437 0.639455
vt 0.507266 0.019531
vt 0.507266 0.639455
vt 0.508422 0.019531
vt 0.508422 0.639455
vt 0.500677 0.684616
vt 0.500459 0.683481
vt 0.500115 0.681684
vt 0.499783 0.679887
vt 0.499549 0.678091
vt 0.499509 0.676294
vt 0.499549 0.674497
vt 0.499783 0.672700
vt 0.500115 0.670903
vt 0.500459 0.669106
vt 0.500677 0.667971
vt 0.492174 0.669316
vt 0.492523 0.667520
vt 0.491827 0.671112
vt 0.491492 0.672908
vt 0.491255 0.674705
vt 0.491211 0.676502
vt 0.491249 0.678299
vt 0.491479 0.680096
vt 0.491809 0.681893
vt 0.492149 0.683691
vt 0.492492 0.685488
vn 0.000000 -1.000000 0.000000
vn 0.000000 -1.000000 0.000000
vn 0.000000 -1.000000 0.000000
vn 0.000000 -1.000000 0.000000
vn 0.000000 1.000000 0.000000
vn 0.000000 1.000000 0.000000
vn 0.000000 1.000000 0.000000
vn 0.000000 1.000000 0.000000
vn 0.258819 0.000000 0.965926
vn 0.258819 0.000000 0.965926
vn 0.258819 0.000000 0.965926
vn 0.258819 0.000000 0.965926
vn 0.258819 0.000000 0.965926
vn 0.258819 0.000000 0.965926
vn 0.258819 0.000000 0.965926
vn 0.258819 0.000000 0.965926
vn 0.258819 0.000000 0.965926
vn 0.258819 0.000000 0.965926
vn 0.258819 0.000000 0.965926
vn 0.258819 0.000000 0.965926
vn 0.258819 0.000000 0.965926
vn 0.258819 0.000000 0.965926
vn 0.258819 0.000000 0.965926
vn 0.258819 0.000000 0.965926
vn 0.258819 0.000000 0.965926
vn 0.258819 0.000000 0.965926
vn 0.258819 0.000000 0.965926
vn 0.258819 0.000000 0.965926
vn 0.258819 0.000000 0.965926
vn 0.258819 0.000000 0.965926
vn 0.258819 0.000000 0.965926
vn 0.258819 0.000000 0.965926
vn 0.258819 0.000000 0.965926
vn 0.258819 0.000000 0.965926
vn 0.258819 0.000000 0.965926
vn 0.258819 0.000000 0.965926
vn 0.258819 0.000000 0.965926
vn 0.258819 0.000000 0.965926
vn 0.258819 0.000000 0.965926
vn 0.258819 0.000000 0.965926
vn 0.258819 0.000000 0.965926
vn 0.258819 0.000000 0.965926
vn 0.258819 0.000000 0.965926
vn 0.258819 0.000000 0.965926
vn 0.258819 0.000000 0.965926
vn 0.258819 0.000000 0.965926
vn 0.258819 0.000000 0.965926
vn 0.258819 0.000000 0.965926
vn 0.948411 0.189570 -0.254126
vn 0.948411 0.189570 -0.254126
vn 0.948631 0.188385 -0.254185
vn 0.948631 0.188385 -0.254185
vn 0.948631 0.188385 -0.254185
vn 0.948631 0.188385 -0.254185
vn 0.949281 0.184846 -0.254359
vn 0.949281 0.184846 -0.254359
vn 0.949281 0.184846 -0.254359
vn 0.949281 0.184846 -0.254359
vn 0.954164 0.155580 -0.255668
vn 0.954164 0.155580 -0.255668
vn 0.954164 0.155580 -0.255668
vn 0.954164 0.155580 -0.255668
vn 0.963155 0.075687 -0.258077
vn 0.963155 0.075687 -0.258077
vn 0.963155 0.075687 -0.258077
vn 0.963155 0.075687 -0.258077
vn 0.965926 0.000000 -0.258819
vn 0.965926 0.000000 -0.258819
vn 0.965926 0.000000 -0.258819
vn 0.965926 0.000000 -0.258819
vn 0.963155 -0.075687 -0.258077
vn 0.963155 -0.075687 -0.258077
vn 0.963155 -0.075687 -0.258077
vn 0.963155 -0.075687 -0.258077
vn 0.954164 -0.155580 -0.255668
vn 0.954164 -0.155580 -0.255668
vn 0.954164 -0.155580 -0.255668
vn 0.954164 -0.155580 -0.255668
vn 0.949281 -0.184846 -0.254359
vn 0.949281 -0.184846 -0.254359
vn 0.949281 -0.184846 -0.254359
vn 0.949281 -0.184846 -0.254359
vn 0.948631 -0.188385 -0.254185
vn 0.948631 -0.188385 -0.254185
vn 0.948631 -0.188385 -0.254185
vn 0.948631 -0.188385 -0.254185
vn 0.948411 -0.189570 -0.254126
vn 0.948411 -0.189570 -0.254126
vn -0.258819 0.000000 -0.965926
vn -0.258819 0.000000 -0.965926
vn -0.258819 0.000000 -0.965926
vn -0.258819 0.000000 -0.965926
vn -0.258819 0.000000 -0.965926
vn -0.258819 0.000000 -0.965926
vn -0.258819 0.000000 -0.965926
vn -0.258819 0.000000 -0.965926
vn -0.258819 0.000000 -0.965926
vn -0.258819 0.000000 -0.965926
vn -0.258819 0.000000 -0.965926
vn -0.258819 0.000000 -0.965926
vn -0.258819 0.000000 -0.965926
vn -0.258819 0.000000 -0.965926
vn -0.258819 0.000000 -0.965926
vn -0.258819 0.000000 -0.965926
vn -0.258819 0.000000 -0.965926
vn -0.258819 0.000000 -0.965926
vn -0.258819 0.000000 -0.965926
vn -0.258819 0.000000 -0.965926
vn -0.258819 0.000000 -0.965926
vn -0.258819 0.000000 -0.965926
vn -0.258819 0.000000 -0.965926
vn -0.258819 0.000000 -0.965926
vn -0.258819 0.000000 -0.965926
vn -0.258819 0.000000 -0.965926
vn -0.258819 0.000000 -0.965926
vn -0.258819 0.000000 -0.965926
vn -0.258819 0.000000 -0.965926
vn -0.258819 0.000000 -0.965926
vn -0.258819 0.000000 -0.965926
vn -0.258819 0.000000 -0.965926
vn -0.258819 0.000000 -0.965926
vn -0.258819 0.000000 -0.965926
vn -0.258819 0.000000 -0.965926
vn -0.258819 0.000000 -0.965926
vn -0.258819 0.000000 -0.965926
vn -0.258819 0.000000 -0.965926
vn -0.258819 0.000000 -0.965926
vn -0.258819 0.000000 -0.965926
vn -0.948410 -0.189577 0.254126
vn -0.948410 -0.189577 0.254126
vn -0.948631 -0.188388 0.254185
vn -0.948631 -0.188388 0.254185
vn -0.948631 -0.188388 0.254185
vn -0.948631 -0.188388 0.254185
vn -0.949281 -0.184846 0.254359
vn -0.949281 -0.184846 0.254359
vn -0.949281 -0.184846 0.254359
vn -0.949281 -0.184846 0.254359
vn -0.954164 -0.155580 0.255668
vn -0.954164 -0.155580 0.255668
vn -0.954164 -0.155580 0.255668
vn -0.954164 -0.155580 0.255668
vn -0.963155 -0.075687 0.258077
vn -0.963155 -0.075687 0.258077
vn -0.963155 -0.075687 0.258077
vn -0.963155 -0.075687 0.258077
vn -0.965926 0.000000 0.258819
vn -0.965926 0.000000 0.258819
vn -0.965926 0.000000 0.258819
vn -0.965926 0.000000 0.258819
vn -0.963155 0.075687 0.258077
vn -0.963155 0.075687 0.258077
vn -0.963155 0.075687 0.258077
vn -0.963155 0.075687 0.258077
vn -0.954164 0.155580 0.255668
vn -0.954164 0.155580 0.255668
vn -0.954164 0.155580 0.255668
vn -0.954164 0.155580 0.255668
vn -0.949281 0.184846 0.254359
vn -0.949281 0.184846 0.254359
vn -0.949281 0.184846 0.254359
vn -0.949281 0.184846 0.254359
vn -0.948631 0.188388 0.254185
vn -0.948631 0.188388 0.254185
vn -0.948631 0.188388 0.254185
vn -0.948631 0.188388 0.254185
vn -0.948410 0.189577 0.254126
vn -0.948410 0.189577 0.254126
vn -0.614881 -0.771218 0.164757
vn -0.614881 -0.771218 0.164757
vn -0.614881 -0.771218 0.164757
vn -0.614881 -0.771218 0.164757
vn -0.614881 0.771218 0.164757
vn -0.614881 0.771218 0.164757
vn -0.614881 0.771218 0.164757
vn -0.614881 0.771218 0.164757
vn 0.258819 0.000000 0.965926
vn 0.258819 0.000000 0.965926
vn 0.258819 0.000000 0.965926
vn 0.258819 0.000000 0.965926
vn 0.258819 0.000000 0.965926
vn 0.258819 0.000000 0.965926
vn 0.258819 0.000000 0.965926
vn 0.258819 0.000000 0.965926
vn 0.258819 0.000000 0.965926
vn 0.258819 0.000000 0.965926
vn 0.258819 0.000000 0.965926
vn 0.258819 0.000000 0.965926
vn 0.258819 0.000000 0.965926
vn 0.258819 0.000000 0.965926
vn 0.258819 0.000000 0.965926
vn 0.258819 0.000000 0.965926
vn 0.258819 0.000000 0.965926
vn 0.258819 0.000000 0.965926
vn 0.258819 0.000000 0.965926
vn 0.258819 0.000000 0.965926
vn 0.258819 0.000000 0.965926
vn 0.258819 0.000000 0.965926
vn 0.258819 0.000000 0.965926
vn 0.258819 0.000000 0.965926
vn 0.258819 0.000000 0.965926
vn 0.258819 0.000000 0.965926
vn 0.258819 0.000000 0.965926
vn 0.258819 0.000000 0.965926
vn 0.258819 0.000000 0.965926
vn 0.258819 0.000000 0.965926
vn 0.258819 0.000000 0.965926
vn 0.258819 0.000000 0.965926
vn 0.258819 0.000000 0.965926
vn 0.258819 0.000000 0.965926
vn 0.258819 0.000000 0.965926
vn 0.258819 0.000000 0.965926
vn 0.258819 0.000000 0.965926
vn 0.258819 0.000000 0.965926
vn 0.258819 0.000000 0.965926
vn 0.258819 0.000000 0.965926
vn -0.258819 0.000000 -0.965926
vn -0.258819 0.000000 -0.965926
vn -0.258819 0.000000 -0.965926
vn -0.258819 0.000000 -0.965926
vn -0.258819 0.000000 -0.965926
vn -0.258819 0.000000 -0.965926
vn -0.258819 0.000000 -0.965926
vn -0.258819 0.000000 -0.965926
vn -0.258819 0.000000 -0.965926
vn -0.258819 0.000000 -0.965926
vn -0.258819 0.000000 -0.965926
vn -0.258819 0.000000 -0.965926
vn -0.258819 0.000000 -0.965926
vn -0.258819 0.000000 -0.965926
vn -0.258819 0.000000 -0.965926
vn -0.258819 0.000000 -0.965926
vn -0.258819 0.000000 -0.965926
vn -0.258819 0.000000 -0.965926
vn -0.258819 0.000000 -0.965926
vn -0.258819 0.000000 -0.965926
vn -0.258819 0.000000 -0.965926
vn -0.258819 0.000000 -0.965926
vn -0.258819 0.000000 -0.965926
vn -0.258819 0.000000 -0.965926
vn -0.258819 0.000000 -0.965926
vn -0.258819 0.000000 -0.965926
vn -0.258819 0.000000 -0.965926
vn -0.258819 0.000000 -0.965926
vn -0.258819 0.000000 -0.965926
vn -0.258819 0.000000 -0.965926
vn -0.258819 0.000000 -0.965926
vn -0.258819 0.000000 -0.965926
vn -0.258819 0.000000 -0.965926
vn -0.258819 0.000000 -0.965926
vn -0.258819 0.000000 -0.965926
vn -0.258819 0.000000 -0.965926
vn -0.258819 0.000000 -0.965926
vn -0.258819 0.000000 -0.965926
vn -0.258819 0.000000 -0.965926
vn -0.258819 0.000000 -0.965926
s off
g magazine_closed_01
usemtl magazine_closed_Mat
f 67/119/257 112/120/258 70/121/259 68/122/260
f 71/123/261 72/124/262 74/125/263 73/126/264
f 67/127/265 68/128/266 76/129/267 123/130/268
f 76/129/269 80/131/270 122/132/271 123/130/272
f 80/131/273 84/133/274 121/134/275 122/132/276
f 84/133/277 88/135/278 120/136/279 121/134/280
f 88/135/281 92/137/282 119/138/283 120/136/284
f 92/137/285 96/139/286 118/140/287 119/138/288
f 96/139/289 100/141/290 117/142/291 118/140/292
f 100/141/293 104/143/294 116/144/295 117/142/296
f 104/143/297 108/145/298 115/146/299 116/144/300
f 108/145/301 72/147/302 71/148/303 115/146/304
f 68/149/305 70/150/306 77/151/307 76/152/308
f 76/152/309 77/151/310 81/153/311 80/154/312
f 80/154/313 81/153/314 85/155/315 84/156/316
f 84/156/317 85/155/318 89/157/319 88/158/320
f 88/158/321 89/157/322 93/159/323 92/160/324
f 92/160/325 93/159/326 97/161/327 96/162/328
f 96/162/329 97/161/330 101/163/331 100/164/332
f 100/164/333 101/163/334 105/165/335 104/166/336
f 104/166/337 105/165/338 109/167/339 108/168/340
f 108/168/341 109/167/342 74/169/343 72/170/344
f 69/171/345 78/172/346 132/173/347 112/174/348
f 78/172/349 82/175/350 131/176/351 132/173/352
f 82/175/353 86/177/354 130/178/355 131/176/356
f 86/177/357 90/179/358 129/180/359 130/178/360
f 90/179/361 94/181/362 128/182/363 129/180/364
f 128/182/365 94/181/366 98/183/367 127/184/368
f 127/184/369 98/183/370 102/185/371 126/186/372
f 126/186/373 102/185/374 106/187/375 125/188/376
f 125/188/377 106/187/378 110/189/379 124/190/380
f 110/189/381 114/191/382 73/192/383 124/190/384
f 69/193/385 111/194/386 75/195/387 78/196/388
f 78/196/389 75/195/390 79/197/391 82/198/392
f 82/198/393 79/197/394 83/199/395 86/200/396
f 86/200/397 83/199/398 87/201/399 90/202/400
f 90/202/401 87/201/402 91/203/403 94/204/404
f 94/204/405 91/203/406 95/205/407 98/206/408
f 98/206/409 95/205/410 99/207/411 102/208/412
f 102/208/413 99/207/414 103/209/415 106/210/416
f 106/210/417 103/209/418 107/211/419 110/212/420
f 110/212/421 107/211/422 113/213/423 114/214/424
f 67/119/425 111/194/426 69/193/427 112/120/428
f 73/126/429 114/214/430 113/213/431 71/123/432
f 113/215/433 107/216/434 115/146/435 71/148/436
f 107/216/437 103/217/438 116/144/439 115/146/440
f 103/217/441 99/218/442 117/142/443 116/144/444
f 99/218/445 95/219/446 118/140/447 117/142/448
f 95/219/449 91/220/450 119/138/451 118/140/452
f 119/138/453 91/220/454 87/221/455 120/136/456
f 120/136/457 87/221/458 83/222/459 121/134/460
f 121/134/461 83/222/462 79/223/463 122/132/464
f 122/132/465 79/223/466 75/224/467 123/130/468
f 67/127/469 123/130/470 75/224/471 111/225/472
f 109/226/473 124/190/474 73/192/475 74/227/476
f 109/226/477 105/228/478 125/188/479 124/190/480
f 105/228/481 101/229/482 126/186/483 125/188/484
f 101/229/485 97/230/486 127/184/487 126/186/488
f 97/230/489 93/231/490 128/182/491 127/184/492
f 93/231/493 89/232/494 129/180/495 128/182/496
f 89/232/497 85/233/498 130/178/499 129/180/500
f 85/233/501 81/234/502 131/176/503 130/178/504
f 81/234/505 77/235/506 132/173/507 131/176/508
f 77/235/509 70/236/510 112/174/511 132/173/512
