{
  "accessors": [
    {
      "bufferView": 2,
      "componentType": 5126,
      "count": 2371,
      "max": [
        0.21078699827194214,
        0.816677987575531,
        0.12287800014019012
      ],
      "min": [
        -0.21078699827194214,
        -0.816677987575531,
        -0.2978470027446747
      ],
      "type": "VEC3"
    },
    {
      "bufferView": 2,
      "byteOffset": 28452,
      "componentType": 5126,
      "count": 2371,
      "max": [
        1.0,
        1.0,
        1.0
      ],
      "min": [
        -1.0,
        -1.0,
        -1.0
      ],
      "type": "VEC3"
    },
    {
      "bufferView": 3,
      "componentType": 5126,
      "count": 2371,
      "max": [
        1.0,
        1.0,
        1.0,
        1.0
      ],
      "min": [
        -1.0,
        -1.0,
        -1.0,
        1.0
      ],
      "type": "VEC4"
    },
    {
      "bufferView": 1,
      "componentType": 5126,
      "count": 2371,
      "max": [
        0.9997559785842896,
        0.9976009726524353
      ],
      "min": [
        0.00024399999529123306,
        0.00024399999529123306
      ],
      "type": "VEC2"
    },
    {
      "bufferView": 0,
      "componentType": 5125,
      "count": 7836,
      "type": "SCALAR"
    },
    {
      "bufferView": 2,
      "byteOffset": 56904,
      "componentType": 5126,
      "count": 994,
      "max": [
        0.09364800155162811,
        0.0274020005017519,
        0.004273000173270702
      ],
      "min": [
        -0.09364800155162811,
        -0.044495999813079834,
        -0.004273000173270702
      ],
      "type": "VEC3"
    },
    {
      "bufferView": 2,
      "byteOffset": 68832,
      "componentType": 5126,
      "count": 994,
      "max": [
        0.9999971389770508,
        0.9996773600578308,
        0.9999894499778748
      ],
      "min": [
        -0.9999991059303284,
        -0.999948263168335,
        -0.9999974966049194
      ],
      "type": "VEC3"
    },
    {
      "bufferView": 3,
      "byteOffset": 37936,
      "componentType": 5126,
      "count": 994,
      "max": [
        0.8921298384666443,
        0.9999949336051941,
        1.0,
        1.0
      ],
      "min": [
        -0.878203272819519,
        -0.9698408246040344,
        -0.9999998807907104,
        1.0
      ],
      "type": "VEC4"
    },
    {
      "bufferView": 1,
      "byteOffset": 18968,
      "componentType": 5126,
      "count": 994,
      "max": [
        0.8648120164871216,
        1.0
      ],
      "min": [
        0.0,
        0.0
      ],
      "type": "VEC2"
    },
    {
      "bufferView": 0,
      "byteOffset": 31344,
      "componentType": 5125,
      "count": 3888,
      "type": "SCALAR"
    },
    {
      "bufferView": 2,
      "byteOffset": 80760,
      "componentType": 5126,
      "count": 994,
      "max": [
        0.09364800155162811,
        0.0274020005017519,
        0.004273000173270702
      ],
      "min": [
        -0.09364800155162811,
        -0.044495999813079834,
        -0.004273000173270702
      ],
      "type": "VEC3"
    },
    {
      "bufferView": 2,
      "byteOffset": 92688,
      "componentType": 5126,
      "count": 994,
      "max": [
        0.9999971389770508,
        0.9996773600578308,
        0.9999894499778748
      ],
      "min": [
        -0.9999991059303284,
        -0.999948263168335,
        -0.9999974966049194
      ],
      "type": "VEC3"
    },
    {
      "bufferView": 3,
      "byteOffset": 53840,
      "componentType": 5126,
      "count": 994,
      "max": [
        0.8921298384666443,
        0.9999947547912598,
        1.0,
        1.0
      ],
      "min": [
        -0.878203272819519,
        -0.9698408246040344,
        -0.9999998807907104,
        1.0
      ],
      "type": "VEC4"
    },
    {
      "bufferView": 1,
      "byteOffset": 26920,
      "componentType": 5126,
      "count": 994,
      "max": [
        0.8648120164871216,
        1.0
      ],
      "min": [
        0.0,
        0.0
      ],
      "type": "VEC2"
    },
    {
      "bufferView": 0,
      "byteOffset": 46896,
      "componentType": 5125,
      "count": 3888,
      "type": "SCALAR"
    },
    {
      "bufferView": 2,
      "byteOffset": 104616,
      "componentType": 5126,
      "count": 994,
      "max": [
        0.09364800155162811,
        0.0274020005017519,
        0.004273000173270702
      ],
      "min": [
        -0.09364800155162811,
        -0.044495999813079834,
        -0.004273000173270702
      ],
      "type": "VEC3"
    },
    {
      "bufferView": 2,
      "byteOffset": 116544,
      "componentType": 5126,
      "count": 994,
      "max": [
        0.9999971389770508,
        0.9996773600578308,
        0.9999894499778748
      ],
      "min": [
        -0.9999991059303284,
        -0.999948263168335,
        -0.9999974966049194
      ],
      "type": "VEC3"
    },
    {
      "bufferView": 3,
      "byteOffset": 69744,
      "componentType": 5126,
      "count": 994,
      "max": [
        0.8921375870704651,
        0.9999947547912598,
        1.0,
        1.0
      ],
      "min": [
        -0.878203272819519,
        -0.9698408246040344,
        -0.9999998807907104,
        1.0
      ],
      "type": "VEC4"
    },
    {
      "bufferView": 1,
      "byteOffset": 34872,
      "componentType": 5126,
      "count": 994,
      "max": [
        0.8648120164871216,
        1.0
      ],
      "min": [
        0.0,
        0.0
      ],
      "type": "VEC2"
    },
    {
      "bufferView": 0,
      "byteOffset": 62448,
      "componentType": 5125,
      "count": 3888,
      "type": "SCALAR"
    },
    {
      "bufferView": 2,
      "byteOffset": 128472,
      "componentType": 5126,
      "count": 994,
      "max": [
        0.09364800155162811,
        0.0274020005017519,
        0.004273000173270702
      ],
      "min": [
        -0.09364800155162811,
        -0.044495999813079834,
        -0.004273000173270702
      ],
      "type": "VEC3"
    },
    {
      "bufferView": 2,
      "byteOffset": 140400,
      "componentType": 5126,
      "count": 994,
      "max": [
        0.9999971389770508,
        0.9996773600578308,
        0.9999894499778748
      ],
      "min": [
        -0.9999991059303284,
        -0.999948263168335,
        -0.9999974966049194
      ],
      "type": "VEC3"
    },
    {
      "bufferView": 3,
      "byteOffset": 85648,
      "componentType": 5126,
      "count": 994,
      "max": [
        0.8921375870704651,
        0.9999949336051941,
        1.0,
        1.0
      ],
      "min": [
        -0.878203272819519,
        -0.9698408246040344,
        -0.9999998807907104,
        1.0
      ],
      "type": "VEC4"
    },
    {
      "bufferView": 1,
      "byteOffset": 42824,
      "componentType": 5126,
      "count": 994,
      "max": [
        0.8648120164871216,
        1.0
      ],
      "min": [
        0.0,
        0.0
      ],
      "type": "VEC2"
    },
    {
      "bufferView": 0,
      "byteOffset": 78000,
      "componentType": 5125,
      "count": 3888,
      "type": "SCALAR"
    },
    {
      "bufferView": 2,
      "byteOffset": 152328,
      "componentType": 5126,
      "count": 994,
      "max": [
        0.09364800155162811,
        0.0274020005017519,
        0.004273000173270702
      ],
      "min": [
        -0.09364800155162811,
        -0.044495999813079834,
        -0.004273000173270702
      ],
      "type": "VEC3"
    },
    {
      "bufferView": 2,
      "byteOffset": 164256,
      "componentType": 5126,
      "count": 994,
      "max": [
        0.9999971389770508,
        0.9996773600578308,
        0.9999894499778748
      ],
      "min": [
        -0.9999991059303284,
        -0.999948263168335,
        -0.9999974966049194
      ],
      "type": "VEC3"
    },
    {
      "bufferView": 3,
      "byteOffset": 101552,
      "componentType": 5126,
      "count": 994,
      "max": [
        0.8921375870704651,
        0.9999947547912598,
        1.0,
        1.0
      ],
      "min": [
        -0.8782159090042114,
        -0.9698408246040344,
        -0.9999998807907104,
        1.0
      ],
      "type": "VEC4"
    },
    {
      "bufferView": 1,
      "byteOffset": 50776,
      "componentType": 5126,
      "count": 994,
      "max": [
        0.8648120164871216,
        1.0
      ],
      "min": [
        0.0,
        0.0
      ],
      "type": "VEC2"
    },
    {
      "bufferView": 0,
      "byteOffset": 93552,
      "componentType": 5125,
      "count": 3888,
      "type": "SCALAR"
    }
  ],
  "asset": {
    "extras": {
      "author": "Sousinho (https://sketchfab.com/sousinho)",
      "license": "CC-BY-4.0 (http://creativecommons.org/licenses/by/4.0/)",
      "source": "https://sketchfab.com/3d-models/wall-pan-rack-30670ee10e524344bad2030a7833c8d6",
      "title": "Wall pan rack"
    },
    "generator": "Sketchfab-13.74.0",
    "version": "2.0"
  },
  "bufferViews": [
    {
      "buffer": 0,
      "byteLength": 109104,
      "name": "floatBufferViews",
      "target": 34963
    },
    {
      "buffer": 0,
      "byteLength": 58728,
      "byteOffset": 109104,
      "byteStride": 8,
      "name": "floatBufferViews",
      "target": 34962
    },
    {
      "buffer": 0,
      "byteLength": 176184,
      "byteOffset": 167832,
      "byteStride": 12,
      "name": "floatBufferViews",
      "target": 34962
    },
    {
      "buffer": 0,
      "byteLength": 117456,
      "byteOffset": 344016,
      "byteStride": 16,
      "name": "floatBufferViews",
      "target": 34962
    }
  ],
  "buffers": [
    {
      "byteLength": 461472,
      "uri": "scene.bin"
    }
  ],
  "images": [
    {
      "uri": "textures/M_rack_hook_001_baseColor.jpeg"
    },
    {
      "uri": "textures/M_rack_hook_001_metallicRoughness.png"
    },
    {
      "uri": "textures/M_rack_hook_001_normal.png"
    },
    {
      "uri": "textures/M_Pan_rack_001_baseColor.jpeg"
    },
    {
      "uri": "textures/M_Pan_rack_001_metallicRoughness.png"
    },
    {
      "uri": "textures/M_Pan_rack_001_normal.png"
    }
  ],
  "materials": [
    {
      "doubleSided": true,
      "name": "M_rack_hook_001",
      "normalTexture": {
        "index": 2
      },
      "occlusionTexture": {
        "index": 1
      },
      "pbrMetallicRoughness": {
        "baseColorTexture": {
          "index": 0
        },
        "metallicRoughnessTexture": {
          "index": 1
        }
      }
    },
    {
      "doubleSided": true,
      "name": "M_Pan_rack_001",
      "normalTexture": {
        "index": 5
      },
      "occlusionTexture": {
        "index": 4
      },
      "pbrMetallicRoughness": {
        "baseColorTexture": {
          "index": 3
        },
        "metallicRoughnessTexture": {
          "index": 4
        }
      }
    }
  ],
  "meshes": [
    {
      "name": "defaultMaterial",
      "primitives": [
        {
          "attributes": {
            "NORMAL": 1,
            "POSITION": 0,
            "TANGENT": 2,
            "TEXCOORD_0": 3
          },
          "indices": 4,
          "material": 1,
          "mode": 4
        }
      ]
    },
    {
      "name": "defaultMaterial",
      "primitives": [
        {
          "attributes": {
            "NORMAL": 6,
            "POSITION": 5,
            "TANGENT": 7,
            "TEXCOORD_0": 8
          },
          "indices": 9,
          "material": 0,
          "mode": 4
        }
      ]
    },
    {
      "name": "defaultMaterial",
      "primitives": [
        {
          "attributes": {
            "NORMAL": 11,
            "POSITION": 10,
            "TANGENT": 12,
            "TEXCOORD_0": 13
          },
          "indices": 14,
          "material": 0,
          "mode": 4
        }
      ]
    },
    {
      "name": "defaultMaterial",
      "primitives": [
        {
          "attributes": {
            "NORMAL": 16,
            "POSITION": 15,
            "TANGENT": 17,
            "TEXCOORD_0": 18
          },
          "indices": 19,
          "material": 0,
          "mode": 4
        }
      ]
    },
    {
      "name": "defaultMaterial",
      "primitives": [
        {
          "attributes": {
            "NORMAL": 21,
            "POSITION": 20,
            "TANGENT": 22,
            "TEXCOORD_0": 23
          },
          "indices": 24,
          "material": 0,
          "mode": 4
        }
      ]
    },
    {
      "name": "defaultMaterial",
      "primitives": [
        {
          "attributes": {
            "NORMAL": 26,
            "POSITION": 25,
            "TANGENT": 27,
            "TEXCOORD_0": 28
          },
          "indices": 29,
          "material": 0,
          "mode": 4
        }
      ]
    }
  ],
  "nodes": [
    {
      "children": [
        1
      ],
      "matrix": [
        1.0,
        0.0,
        0.0,
        0.0,
        0.0,
        2.220446049250313e-16,
        -1.0,
        0.0,
        0.0,
        1.0,
        2.220446049250313e-16,
        0.0,
        0.0,
        0.0,
        0.0,
        1.0
      ],
      "name": "Sketchfab_model"
    },
    {
      "children": [
        2,
        4,
        6,
        8,
        10,
        12
      ],
      "matrix": [
        1.0,
        0.0,
        0.0,
        0.0,
        0.0,
        -4.371139006309477e-08,
        0.999999999999999,
        0.0,
        0.0,
        -0.999999999999999,
        -4.371139006309477e-08,
        0.0,
        0.0,
        0.0,
        0.0,
        1.0
      ],
      "name": "Collada visual scene group"
    },
    {
      "children": [
        3
      ],
      "matrix": [
        100.0,
        0.0,
        0.0,
        0.0,
        0.0,
        -1.6e-05,
        -100.0,
        0.0,
        0.0,
        100.0,
        -1.6e-05,
        0.0,
        -2.104985,
        29.957754,
        -0.013515,
        1.0
      ],
      "name": "SM_Pan"
    },
    {
      "mesh": 0,
      "name": "defaultMaterial"
    },
    {
      "children": [
        5
      ],
      "matrix": [
        -1.6e-05,
        -100.0,
        0.0,
        0.0,
        100.0,
        -1.6e-05,
        -8e-06,
        0.0,
        8e-06,
        0.0,
        100.0,
        0.0,
        -12.507802,
        12.486848,
        53.336418,
        1.0
      ],
      "name": "SM_Rack"
    },
    {
      "mesh": 1,
      "name": "defaultMaterial"
    },
    {
      "children": [
        7
      ],
      "matrix": [
        -1.6e-05,
        -100.0,
        0.0,
        0.0,
        100.0,
        -1.6e-05,
        -8e-06,
        0.0,
        8e-06,
        0.0,
        100.0,
        0.0,
        -12.507802,
        12.486848,
        37.256351,
        1.0
      ],
      "name": "SM_Rack"
    },
    {
      "mesh": 2,
      "name": "defaultMaterial"
    },
    {
      "children": [
        9
      ],
      "matrix": [
        -1.6e-05,
        -100.0,
        0.0,
        0.0,
        100.0,
        -1.6e-05,
        -8e-06,
        0.0,
        8e-06,
        0.0,
        100.0,
        0.0,
        -12.507802,
        12.486848,
        5.408126,
        1.0
      ],
      "name": "SM_Rack"
    },
    {
      "mesh": 3,
      "name": "defaultMaterial"
    },
    {
      "children": [
        11
      ],
      "matrix": [
        -1.6e-05,
        -100.0,
        0.0,
        0.0,
        100.0,
        -1.6e-05,
        -8e-06,
        0.0,
        8e-06,
        0.0,
        100.0,
        0.0,
        -12.507802,
        12.486848,
        -70.243004,
        1.0
      ],
      "name": "SM_Rack"
    },
    {
      "mesh": 4,
      "name": "defaultMaterial"
    },
    {
      "children": [
        13
      ],
      "matrix": [
        -1.6e-05,
        -100.0,
        0.0,
        0.0,
        100.0,
        -1.6e-05,
        -8e-06,
        0.0,
        8e-06,
        0.0,
        100.0,
        0.0,
        -12.507802,
        12.486848,
        -55.564224,
        1.0
      ],
      "name": "SM_Rack"
    },
    {
      "mesh": 5,
      "name": "defaultMaterial"
    }
  ],
  "samplers": [
    {
      "magFilter": 9729,
      "minFilter": 9987,
      "wrapS": 10497,
      "wrapT": 10497
    }
  ],
  "scene": 0,
  "scenes": [
    {
      "name": "Sketchfab_Scene",
      "nodes": [
        0
      ]
    }
  ],
  "textures": [
    {
      "sampler": 0,
      "source": 0
    },
    {
      "sampler": 0,
      "source": 1
    },
    {
      "sampler": 0,
      "source": 2
    },
    {
      "sampler": 0,
      "source": 3
    },
    {
      "sampler": 0,
      "source": 4
    },
    {
      "sampler": 0,
      "source": 5
    }
  ]
}
